<svg width="100" height="100" viewBox="0 0 100 100" fill="none" xmlns="http://www.w3.org/2000/svg">
<g clip-path="url(#clip0_180_864)">
<path d="M98.6778 89.2375L89.5903 37.2875C88.8153 32.8875 85.0153 29.6875 80.5403 29.6875H70.5278V20.325C70.5403 9.1125 61.4278 0 50.2278 0C39.0278 0 29.9153 9.1125 29.9153 20.3125V29.675H19.9403C15.4653 29.675 11.6653 32.875 10.8903 37.275L8.16533 52.9L7.85283 54.675L1.80283 89.225C1.34033 91.9 2.06533 94.6375 3.81533 96.7125C5.56533 98.8 8.12783 99.9875 10.8528 99.9875H89.6403C92.3653 99.9875 94.9153 98.8 96.6653 96.7125C98.4153 94.6375 99.1528 91.9 98.6778 89.225V89.2375ZM33.4403 20.3125C33.4403 11.05 40.9778 3.525 50.2278 3.525C59.4778 3.525 67.0153 11.0625 67.0153 20.3125V29.675H33.4278V20.3125H33.4403ZM93.9653 94.4625C92.8903 95.7375 91.3153 96.475 89.6403 96.475H10.8528C9.17783 96.475 7.59033 95.7375 6.51533 94.4625C5.42783 93.175 4.97783 91.5 5.26533 89.85L11.4903 54.2875L14.3528 37.9C14.8278 35.1875 17.1778 33.2125 19.9278 33.2125H29.9028V38.875C29.9028 39.85 30.6903 40.6375 31.6653 40.6375C32.6403 40.6375 33.4278 39.85 33.4278 38.875V33.2125H67.0153V38.875C67.0153 39.85 67.8028 40.6375 68.7778 40.6375C69.7528 40.6375 70.5403 39.85 70.5403 38.875V33.2125H80.5528C83.3028 33.2125 85.6528 35.1875 86.1278 37.9L95.2153 89.85C95.5028 91.5 95.0403 93.175 93.9653 94.4625Z" fill="#DD2229"/>
<path d="M53.1655 68.5499L57.1655 64.5499C57.503 64.2124 57.678 63.7749 57.678 63.2999C57.678 62.8249 57.4905 62.3874 57.1655 62.0499C56.828 61.7124 56.3905 61.5374 55.9155 61.5374C55.4405 61.5374 55.003 61.7249 54.6655 62.0499L50.6655 66.0499L46.6655 62.0499C46.328 61.7124 45.8905 61.5374 45.4155 61.5374C44.9405 61.5374 44.503 61.7249 44.1655 62.0499C43.478 62.7374 43.478 63.8499 44.1655 64.5374L48.1655 68.5374L44.1655 72.5374C43.478 73.2249 43.478 74.3374 44.1655 75.0249C44.503 75.3624 44.9405 75.5374 45.4155 75.5374C45.8905 75.5374 46.328 75.3499 46.6655 75.0249L50.6655 71.0249L54.6655 75.0249C55.003 75.3624 55.4405 75.5374 55.9155 75.5374C56.3905 75.5374 56.828 75.3499 57.1655 75.0249C57.853 74.3374 57.853 73.2249 57.1655 72.5374L53.1655 68.5374V68.5499Z" fill="#DD2229"/>
<path d="M50.2275 48.2375C39.0275 48.2375 29.915 57.35 29.915 68.55C29.915 79.75 39.0275 88.8625 50.2275 88.8625C61.4275 88.8625 70.54 79.75 70.54 68.55C70.54 57.35 61.4275 48.2375 50.2275 48.2375ZM50.2275 85.3375C40.965 85.3375 33.44 77.8 33.44 68.55C33.44 59.3 40.9775 51.7625 50.2275 51.7625C59.4775 51.7625 67.015 59.3 67.015 68.55C67.015 77.8 59.4775 85.3375 50.2275 85.3375Z" fill="#DD2229"/>
</g>
<defs>
<clipPath id="clip0_180_864">
<rect width="100" height="100" fill="white"/>
</clipPath>
</defs>
</svg>
