<svg width="40" height="40" viewBox="0 0 40 40" fill="none" xmlns="http://www.w3.org/2000/svg">
<rect x="0.3125" y="0.3125" width="39.375" height="39.375" rx="7.6875" fill="white"/>
<rect x="0.3125" y="0.3125" width="39.375" height="39.375" rx="7.6875" stroke="#DD2229" stroke-width="0.625"/>
<path d="M13.3333 15.8333H26.6666M18.3333 19.1667V24.1667M21.6666 19.1667V24.1667M14.1666 15.8333L14.9999 25.8333C14.9999 26.2754 15.1755 26.6993 15.4881 27.0118C15.8006 27.3244 16.2246 27.5 16.6666 27.5H23.3333C23.7753 27.5 24.1992 27.3244 24.5118 27.0118C24.8243 26.6993 24.9999 26.2754 24.9999 25.8333L25.8333 15.8333M17.4999 15.8333V13.3333C17.4999 13.1123 17.5877 12.9004 17.744 12.7441C17.9003 12.5878 18.1122 12.5 18.3333 12.5H21.6666C21.8876 12.5 22.0996 12.5878 22.2558 12.7441C22.4121 12.9004 22.4999 13.1123 22.4999 13.3333V15.8333" stroke="#DD2229" stroke-width="1.66667" stroke-linecap="round" stroke-linejoin="round"/>
</svg>
