<svg width="139" height="139" viewBox="0 0 139 139" fill="none" xmlns="http://www.w3.org/2000/svg">
<g clip-path="url(#clip0_64_867)">
<path d="M2.33355 118.544C1.05442 118.544 0 117.49 0 116.211V44.8386C0 43.5422 1.03713 42.5051 2.33355 42.5051C3.62996 42.5051 4.66709 43.5595 4.66709 44.8386V78.943H34.2081C35.5045 78.943 36.5416 79.9974 36.5416 81.2765V116.193C36.5416 117.49 35.4872 118.527 34.2081 118.527C32.9289 118.527 31.8745 117.472 31.8745 116.193V83.6101H4.68438V116.193C4.68438 117.49 3.62996 118.527 2.35083 118.527L2.33355 118.544Z" fill="#DD2229"/>
<path d="M128.345 118.544C127.066 118.544 126.011 117.49 126.011 116.211V100.325H54.7778V116.211C54.7778 117.507 53.7234 118.544 52.4443 118.544C51.1651 118.544 50.1107 117.49 50.1107 116.211V82.9705L49.6613 82.7977C46.256 81.4148 43.7151 78.4763 42.8508 74.9155V74.8291L42.7817 74.7426C42.6088 74.4142 42.5224 74.0512 42.5224 73.7055V55.4865C42.5224 52.5134 44.9251 50.1107 47.8982 50.1107H65.4257L65.4948 49.5058C66.9123 38.2874 76.1254 29.6447 87.4129 28.936L88.0697 28.9014V24.4244H84.3361C83.0397 24.4244 82.0025 23.37 82.0025 22.0909C82.0025 20.8118 83.0569 19.7574 84.3361 19.7574H96.4878C97.7842 19.7574 98.8214 20.8118 98.8214 22.0909C98.8214 23.37 97.7669 24.4244 96.4878 24.4244H92.7541V28.9014L93.411 28.936C104.716 29.6274 113.929 38.2874 115.329 49.5058L115.398 50.1107H132.908C135.864 50.1107 138.284 52.5134 138.284 55.4865V73.7055C138.284 74.1031 138.181 74.5006 137.99 74.8291L137.939 74.9155V75.0019C137.022 78.5282 134.481 81.4321 131.111 82.7804L130.679 82.9533V116.193C130.679 117.49 129.624 118.527 128.345 118.527V118.544ZM62.539 79.7554C60.7068 81.847 58.1658 83.178 55.3828 83.5237L54.7778 83.5928V95.6408H126.011V83.5928L125.389 83.5237C122.606 83.178 120.065 81.847 118.233 79.7554L117.714 79.1504L117.196 79.7382C115.035 82.1927 111.889 83.6101 108.605 83.6101C105.321 83.6101 102.192 82.1927 100.014 79.7382L99.4955 79.1504L98.9769 79.7554C96.8162 82.21 93.6875 83.6274 90.386 83.6274C87.0845 83.6274 83.9731 82.21 81.7951 79.7554L81.2765 79.1677L80.758 79.7727C78.5973 82.2273 75.4686 83.6447 72.1671 83.6447C68.8655 83.6447 65.7541 82.2273 63.5761 79.7727L63.0576 79.185L62.539 79.7727V79.7554ZM117.87 71.3547C119.011 71.3547 119.996 72.1671 120.169 73.3079C120.722 76.5749 123.522 78.943 126.841 78.943C130.16 78.943 132.96 76.5749 133.513 73.3079C133.531 73.2215 133.548 73.1005 133.583 72.9968L133.617 72.8931V54.7606H47.1895V72.8931L47.224 72.9968C47.2586 73.1005 47.2759 73.1869 47.2932 73.2906C47.8463 76.5576 50.6466 78.9257 53.9481 78.9257C57.2496 78.9257 60.0672 76.5576 60.6203 73.2906C60.8105 72.1671 61.7785 71.3374 62.9193 71.3374H63.1959C64.3367 71.3374 65.322 72.1498 65.4948 73.2906C66.048 76.5576 68.8482 78.9257 72.1671 78.9257C75.4859 78.9257 78.2861 76.5576 78.8393 73.2906C79.0294 72.1671 79.9974 71.3374 81.1382 71.3374H81.4148C82.5557 71.3374 83.5237 72.1498 83.7138 73.2906C84.2669 76.5576 87.0672 78.9257 90.386 78.9257C93.7048 78.9257 96.5051 76.5576 97.0582 73.2906C97.2484 72.1671 98.2164 71.3374 99.3572 71.3374H99.6338C100.775 71.3374 101.76 72.1498 101.933 73.2906C102.486 76.5576 105.286 78.9257 108.605 78.9257C111.924 78.9257 114.724 76.5576 115.277 73.2906C115.467 72.1671 116.435 71.3374 117.576 71.3374H117.853L117.87 71.3547ZM88.8822 33.5166C79.6171 33.5166 71.7695 40.137 70.2311 49.281L70.0928 50.0935H110.714L110.576 49.281C109.037 40.1543 101.189 33.5166 91.9244 33.5166H88.8995H88.8822Z" fill="#DD2229"/>
</g>
<defs>
<clipPath id="clip0_64_867">
<rect width="138.284" height="138.284" fill="white"/>
</clipPath>
</defs>
</svg>
