<svg width="167" height="167" viewBox="0 0 167 167" fill="none" xmlns="http://www.w3.org/2000/svg">
<g clip-path="url(#clip0_293_2276)">
<path d="M166.229 59.4583L143.292 21.125C143.042 20.3958 142.604 20.0416 142 19.7708C141.938 19.75 141.875 19.7291 141.812 19.7083C141.688 19.6666 141.562 19.6041 141.417 19.5625L87.0625 5.72913C84.5417 5.10413 82.0417 5.41663 79.8333 6.66663C78.2292 7.58329 76.9583 8.85413 76.1458 10.4375H75.4375C33.9375 10.4375 0 44.375 0 85.8541C0 127.333 33.9375 161.271 75.4167 161.271C90.0417 161.271 104.083 157.104 116.083 149.396L132.917 153.729C133.854 154.042 134.479 154.042 135.438 154.042C137 154.042 138.583 153.729 140.146 152.479C142.354 151.229 143.917 149.333 144.542 146.833L166.542 62C166.854 61.0625 166.542 60.1041 166.229 59.4791V59.4583ZM157.104 56.3125L137 50.9791L142.333 31.1875L157.104 56.3333V56.3125ZM138.562 145.542C138.25 146.167 137.625 147.104 137 147.417C136.062 147.729 135.438 148.042 134.479 147.729L117.042 143.229C116.604 142.979 116.104 142.854 115.583 142.854L55.2917 127.292C54.6667 126.979 53.7292 126.354 53.4167 125.729C53.1042 124.792 52.7917 124.167 53.1042 123.208L60.3958 95.25H66C67.875 95.25 69.1458 94 69.1458 92.1041C69.1458 90.2083 67.8958 88.9583 66 88.9583H15.7083C13.8333 88.9583 12.5625 90.2083 12.5625 92.1041C12.5625 94 13.8125 95.25 15.7083 95.25H54L47.125 121.646C46.5 124.167 46.8125 126.667 48.0625 128.875C49.3125 131.083 51.2083 132.646 53.7083 133.271L107.292 147.083C97.5208 152.187 86.6875 154.937 75.3958 154.937C37.375 154.937 6.27083 123.833 6.27083 85.8125C6.27083 47.7916 36.625 17.5208 74.3125 16.75L68.8125 38.7083H50.2708C48.3958 38.7083 47.125 39.9583 47.125 41.8541C47.125 43.75 48.375 45 50.2708 45H84.8333C86.7083 45 87.9792 43.75 87.9792 41.8541C87.9792 39.9583 86.7292 38.7083 84.8333 38.7083H75.2083L81.6875 13.875C81.6875 12.9375 82.3125 12.3125 82.9375 11.6666C83.875 11.3541 84.5 11.0416 85.4583 11.3541L136.812 24.875L129.771 52.2083C129.458 53.1458 129.771 54.1041 130.083 54.7291C130.396 55.6666 131.021 55.9791 131.958 56.2916L159.979 63.5208L138.562 145.542Z" fill="#42B212"/>
<path d="M100.541 54.4166H21.9993C20.1243 54.4166 18.8535 55.6666 18.8535 57.5624C18.8535 59.4583 20.1035 60.7083 21.9993 60.7083H100.562C102.437 60.7083 103.708 59.4583 103.708 57.5624C103.708 55.6666 102.458 54.4166 100.562 54.4166H100.541Z" fill="#42B212"/>
<path d="M72.2699 70.1458H37.7074C35.8324 70.1458 34.5615 71.3958 34.5615 73.2916C34.5615 75.1875 35.8115 76.4374 37.7074 76.4374H72.2699C74.1449 76.4374 75.4157 75.1875 75.4157 73.2916C75.4157 71.3958 74.1657 70.1458 72.2699 70.1458Z" fill="#42B212"/>
</g>
<defs>
<clipPath id="clip0_293_2276">
<rect width="166.667" height="166.667" fill="white"/>
</clipPath>
</defs>
</svg>
