<svg width="166" height="166" viewBox="0 0 166 166" fill="none" xmlns="http://www.w3.org/2000/svg">
<g clip-path="url(#clip0_293_2382)">
<path d="M163.406 148.134L148.321 61.8973C147.034 54.5933 140.726 49.2812 133.298 49.2812H116.677V33.7395C116.698 15.1267 101.571 0 82.979 0C64.387 0 49.2602 15.1267 49.2602 33.7188V49.2605H32.7017C25.2732 49.2605 18.9652 54.5725 17.6787 61.8765L13.1552 87.814L12.6365 90.7605L2.59348 148.113C1.82573 152.554 3.02923 157.098 5.93423 160.543C8.83923 164.008 13.093 165.979 17.6165 165.979H148.404C152.927 165.979 157.16 164.008 160.065 160.543C162.97 157.098 164.194 152.554 163.406 148.113V148.134ZM55.1117 33.7188C55.1117 18.343 67.624 5.8515 82.979 5.8515C98.334 5.8515 110.846 18.3638 110.846 33.7188V49.2605H55.091V33.7188H55.1117ZM155.583 156.808C153.799 158.924 151.184 160.148 148.404 160.148H17.6165C14.836 160.148 12.2007 158.924 10.4162 156.808C8.61098 154.671 7.86398 151.89 8.34123 149.151L18.6747 90.1173L23.4265 62.914C24.215 58.4113 28.116 55.1328 32.681 55.1328H49.2395V64.5325C49.2395 66.151 50.5467 67.4582 52.1652 67.4582C53.7837 67.4582 55.091 66.151 55.091 64.5325V55.1328H110.846V64.5325C110.846 66.151 112.153 67.4582 113.772 67.4582C115.39 67.4582 116.698 66.151 116.698 64.5325V55.1328H133.318C137.883 55.1328 141.785 58.4113 142.573 62.914L157.658 149.151C158.135 151.89 157.368 154.671 155.583 156.808Z" fill="#42B212"/>
<path d="M82.9775 80.0742C64.3855 80.0742 49.2588 95.2009 49.2588 113.793C49.2588 132.385 64.3855 147.512 82.9775 147.512C101.57 147.512 116.696 132.385 116.696 113.793C116.696 95.2009 101.57 80.0742 82.9775 80.0742ZM82.9775 141.66C67.6018 141.66 55.1103 129.148 55.1103 113.793C55.1103 98.4379 67.6225 85.9257 82.9775 85.9257C98.3325 85.9257 110.845 98.4379 110.845 113.793C110.845 129.148 98.3325 141.66 82.9775 141.66Z" fill="#42B212"/>
<path d="M96.7559 105.099L75.4871 120.039L70.3826 112.672C69.4074 111.261 67.4569 110.909 66.0459 111.884C64.6349 112.859 64.2821 114.81 65.2574 116.221L72.1464 126.16C72.6236 126.845 73.3499 127.301 74.1591 127.446C74.3459 127.488 74.5119 127.488 74.6986 127.488C75.3419 127.488 75.9644 127.301 76.4831 126.928L100.325 110.182C101.736 109.186 102.068 107.257 101.093 105.846C100.117 104.435 98.1669 104.103 96.7559 105.078V105.099Z" fill="#42B212"/>
</g>
<defs>
<clipPath id="clip0_293_2382">
<rect width="166" height="166" fill="white"/>
</clipPath>
</defs>
</svg>
