<svg width="100" height="100" viewBox="0 0 100 100" fill="none" xmlns="http://www.w3.org/2000/svg">
<g clip-path="url(#clip0_271_2075)">
<path d="M88.1617 100C87.6867 100 87.2242 99.8125 86.8867 99.475L78.6242 91.2L70.3492 99.475C70.0117 99.8125 69.5492 100 69.0742 100C68.5992 100 68.1367 99.8125 67.7992 99.475L59.5367 91.2L51.1992 99.5375C50.8742 99.8375 50.4367 100 49.9992 100C49.5242 100 49.0617 99.8125 48.7242 99.475L40.4492 91.2L32.1617 99.5C31.8117 99.8 31.3742 99.9625 30.9117 99.9625C30.4242 99.9625 29.9617 99.775 29.5992 99.4375L21.3617 91.2L13.0242 99.5375C12.6867 99.8375 12.2617 100 11.8117 100C11.5742 100 11.3492 99.95 11.1242 99.8625C10.4492 99.5875 10.0117 98.925 10.0117 98.2V9.0375C10.0117 4.0625 14.0742 0 19.0492 0H80.8992C85.8742 0 89.9367 4.0625 89.9367 9.0375V98.1875C89.9367 98.6625 89.7492 99.125 89.4117 99.4625C89.0742 99.8 88.6117 99.9875 88.1367 99.9875L88.1617 100ZM59.5367 86.85C60.0117 86.85 60.4742 87.05 60.8117 87.375L69.0742 95.65L77.4117 87.3125C77.7367 87.0125 78.1742 86.85 78.6117 86.85C79.0867 86.85 79.5367 87.0375 79.8867 87.375L86.3492 93.8375V9.0375C86.3492 6.05 83.9117 3.6125 80.9242 3.6H19.0742C16.0742 3.6 13.6367 6.05 13.6367 9.0375V93.8375L20.0992 87.375C20.4242 87.075 20.8867 86.8875 21.3742 86.8875C21.8617 86.8875 22.3242 87.075 22.6867 87.4125L30.9242 95.65L39.2617 87.3C39.5867 87.0125 40.0242 86.85 40.4617 86.85C40.9367 86.85 41.3992 87.0375 41.7367 87.375L50.0117 95.6375L55.4117 90.2375L58.2742 87.375C58.6117 87.0375 59.0742 86.85 59.5492 86.85H59.5367ZM28.3617 57.875C27.3617 57.875 26.5617 57.0625 26.5617 56.075C26.5617 55.0875 27.3742 54.275 28.3617 54.275H49.9992C50.9992 54.275 51.7992 55.0875 51.7992 56.075C51.7992 57.0625 50.9867 57.875 49.9992 57.875H28.3617ZM28.3617 40.775C27.3617 40.775 26.5617 39.9625 26.5617 38.975C26.5617 37.9875 27.3742 37.175 28.3617 37.175H71.6367C72.6367 37.175 73.4367 37.9875 73.4367 38.975C73.4367 39.9625 72.6242 40.775 71.6367 40.775H28.3617ZM28.3617 23.675C27.3617 23.675 26.5617 22.8625 26.5617 21.875C26.5617 20.8875 27.3742 20.075 28.3617 20.075H71.6367C72.6367 20.075 73.4367 20.8875 73.4367 21.875C73.4367 22.8625 72.6992 23.6 71.7742 23.675H28.3617Z" fill="#42B212"/>
</g>
<defs>
<clipPath id="clip0_271_2075">
<rect width="100" height="100" fill="white"/>
</clipPath>
</defs>
</svg>
