<svg width="80" height="80" viewBox="0 0 80 80" fill="none" xmlns="http://www.w3.org/2000/svg">
<g clip-path="url(#clip0_277_2115)">
<path d="M21.77 71.9C14.23 71.9 8.1 65.77 8.1 58.23C8.1 57.39 8.78 56.71 9.62 56.71C10.46 56.71 11.14 57.39 11.14 58.23C11.14 64.09 15.91 68.86 21.77 68.86H58.23C64.09 68.86 68.86 64.09 68.86 58.23V37.59L63.35 43.1C63.06 43.39 62.68 43.55 62.28 43.55C61.88 43.55 61.49 43.39 61.21 43.1C60.62 42.51 60.62 41.54 61.21 40.95L69.31 32.85C69.6 32.56 69.98 32.4 70.38 32.4C70.78 32.4 71.17 32.56 71.45 32.85L79.55 40.95C80.14 41.54 80.14 42.51 79.55 43.1C79.26 43.39 78.88 43.54 78.48 43.54C78.08 43.54 77.69 43.38 77.41 43.1L71.9 37.59V58.23C71.9 65.77 65.77 71.9 58.23 71.9H21.77ZM9.62 47.59C9.21 47.59 8.83 47.43 8.55 47.15L0.45 39.05C0.16 38.76 0 38.38 0 37.98C0 37.58 0.16 37.19 0.45 36.91C0.74 36.63 1.12 36.46 1.52 36.46C1.92 36.46 2.31 36.62 2.59 36.91L8.1 42.42V21.78C8.1 14.24 14.23 8.10999 21.77 8.10999H58.23C65.77 8.10999 71.9 14.24 71.9 21.78C71.9 22.62 71.22 23.3 70.38 23.3C69.54 23.3 68.86 22.62 68.86 21.78C68.86 15.92 64.09 11.15 58.23 11.15H21.77C15.91 11.15 11.14 15.92 11.14 21.78V42.42L16.65 36.91C16.94 36.62 17.32 36.46 17.72 36.46C18.12 36.46 18.51 36.62 18.79 36.91C19.38 37.5 19.38 38.47 18.79 39.06L10.69 47.16C10.4 47.45 10.02 47.6 9.62 47.6V47.59Z" fill="#757575"/>
</g>
<defs>
<clipPath id="clip0_277_2115">
<rect width="80" height="80" fill="white"/>
</clipPath>
</defs>
</svg>
