<svg width="139" height="139" viewBox="0 0 139 139" fill="none" xmlns="http://www.w3.org/2000/svg">
<g clip-path="url(#clip0_64_877)">
<path d="M127.982 55.1927C127.982 54.5359 127.688 53.9136 127.204 53.4814L110.576 39.2209V26.6543C110.576 21.5724 106.427 17.4238 101.345 17.4238H36.9392C31.8572 17.4238 27.7087 21.5724 27.7087 26.6543V39.2209L11.08 53.4814C10.5788 53.9136 10.3022 54.5359 10.3022 55.1927V111.63C10.3022 116.712 14.4507 120.86 19.5327 120.86H118.786C123.868 120.86 128.017 116.729 128.017 111.63V55.1927H127.982ZM53.9482 33.2919C53.9482 32.6178 54.5013 32.0474 55.1754 32.0474H83.0916C83.7657 32.0474 84.3188 32.6005 84.3188 33.2919V38.0282H53.9309V33.2919H53.9482ZM83.1088 27.5359H55.1927C52.0295 27.5359 49.4539 30.1114 49.4539 33.2747V38.0109H32.2375V26.6543C32.2375 24.0442 34.3636 21.9181 36.9738 21.9181H101.38C103.99 21.9181 106.116 24.0442 106.116 26.6543V38.0109H88.8995V33.2747C88.8995 30.1114 86.324 27.5359 83.1607 27.5359H83.1088ZM18.6165 52.9456L30.7855 42.5224H107.499L119.668 52.9456H18.6165ZM123.488 57.4398V111.613C123.488 114.223 121.362 116.349 118.752 116.349H19.5154C16.9053 116.349 14.7791 114.223 14.7791 111.613V57.4398H123.488Z" fill="#283034"/>
</g>
<defs>
<clipPath id="clip0_64_877">
<rect width="138.284" height="138.284" fill="white"/>
</clipPath>
</defs>
</svg>
