<svg width="80" height="80" viewBox="0 0 80 80" fill="none" xmlns="http://www.w3.org/2000/svg">
<g clip-path="url(#clip0_396_543)">
<path d="M15.2099 72.58C14.8899 72.58 14.5799 72.47 14.3399 72.27L0.499911 60.96C0.0499113 60.59 -0.120089 59.98 0.0699112 59.43C0.259911 58.88 0.789911 58.51 1.36991 58.51H19.4099L19.3899 58.17L19.3699 58.06C19.4499 56.71 19.0199 55.52 18.0999 54.48C14.8599 50.81 6.37991 50.03 6.29991 50.02C5.60991 49.96 5.06991 49.4 5.03991 48.7L4.83991 43.51C4.81991 43.07 5.01991 42.65 5.35991 42.38C5.59991 42.19 5.90991 42.08 6.21991 42.08C6.33991 42.08 6.45991 42.1 6.57991 42.13C6.65991 42.14 6.70991 42.15 6.80991 42.15C8.00991 42.15 14.7799 41.43 30.4499 27.2C30.7099 26.97 37.0399 21.53 44.6799 21.53C46.8799 21.53 48.9999 21.99 50.9699 22.89L51.1199 22.96L51.2599 22.87C52.5299 22.03 53.9299 21.22 55.2899 20.53C61.9499 17.13 62.0199 16.28 62.1099 15.19C62.1399 14.9 62.1599 14.67 62.1899 14.43C62.2499 14 62.2499 13.51 62.2499 12.99C62.2499 11.27 62.2499 8.94999 64.8399 7.72999C65.2599 7.52999 65.6999 7.42999 66.1399 7.42999C68.5599 7.42999 69.9299 10.34 70.7599 12.08L70.8299 12.22L71.0499 12.38C72.1399 12.55 73.6799 12.93 74.8599 13.74C76.0199 14.54 76.5999 16.01 76.3299 17.47C76.0699 18.87 75.1299 19.94 73.8699 20.24C73.4399 20.34 72.9499 20.36 72.5399 20.36L71.2199 20.34C69.7099 20.34 68.1599 20.5 67.0699 21.69C66.2499 22.59 66.2399 25.28 66.2299 28.13C66.2299 28.96 66.2299 29.82 66.2099 30.71V30.82L66.2699 30.9C67.9899 33.1 76.2399 44.77 70.1899 58.08L69.9999 58.51H78.6199C79.1999 58.51 79.7199 58.88 79.9199 59.42C80.1199 59.97 79.9399 60.58 79.4899 60.95L65.6599 72.25C65.4099 72.45 65.1099 72.56 64.7899 72.56H15.2099V72.58ZM15.6999 69.82H64.2999L74.7599 61.27H5.23991L15.6999 69.82ZM44.7399 24.31C38.1399 24.31 32.3399 29.21 32.2799 29.26C18.5799 41.7 11.1299 44.33 7.90991 44.79L7.63991 44.83L7.73991 47.42L7.98991 47.46C12.4099 48.09 22.6299 50.4 22.1099 58.21L22.0899 58.53H67.3599L67.3399 58.21C67.3199 57.93 67.3499 57.71 67.4499 57.52C71.8699 48.42 68.6499 40.12 66.3299 35.99L65.9099 35.23L65.7699 36.09C65.5799 37.24 65.3499 38.26 65.0499 39.21C63.3499 44.63 57.3599 49.03 51.7099 49.03C48.2199 49.03 45.2699 47.36 43.3999 44.32C41.3399 40.97 40.7899 37.56 41.7399 34.17C42.6199 31.05 44.7499 28.05 48.0699 25.27L48.5199 24.9L47.9599 24.75C46.9299 24.48 45.8599 24.34 44.7499 24.34L44.7399 24.31ZM65.9799 10.21C65.1399 10.65 65.0199 11.19 65.0199 12.96C65.0199 13.59 65.0199 14.21 64.9199 14.83C64.8899 15.02 64.8799 15.19 64.8599 15.36C64.6499 17.88 63.8399 19.25 56.5399 22.97C50.0099 26.3 45.5799 30.64 44.3899 34.88C43.6399 37.54 44.0799 40.14 45.7499 42.85C47.4699 45.66 49.9399 46.25 51.7099 46.25C56.1699 46.25 61.0799 42.63 62.4199 38.36C63.4699 35.02 63.4799 31.38 63.4799 28.16C63.4799 24.44 63.4899 21.51 65.0399 19.83C66.8699 17.85 69.2999 17.59 71.2199 17.59H72.5399C72.8899 17.6 73.1199 17.59 73.2299 17.56C73.4399 17.52 73.5799 17.22 73.6299 16.96C73.6799 16.73 73.6699 16.25 73.3099 16C72.1199 15.18 69.9699 15.01 69.9499 15.01C69.5799 14.98 69.2299 14.81 68.9999 14.52C68.7599 14.24 68.5799 13.86 68.2999 13.27C67.0999 10.73 66.5499 10.28 66.2099 10.18L66.0899 10.14L65.9799 10.2V10.21Z" fill="#283034"/>
</g>
<defs>
<clipPath id="clip0_396_543">
<rect width="80" height="80" fill="white"/>
</clipPath>
</defs>
</svg>
