<svg width="80" height="80" viewBox="0 0 80 80" fill="none" xmlns="http://www.w3.org/2000/svg">
<g clip-path="url(#clip0_396_159)">
<path d="M74.78 55.13C75.59 54.06 76.01 52.79 76.01 51.46C76.01 51.17 75.98 50.87 75.93 50.52C77.08 49.82 78.36 48.35 78.1 45.32C77.95 43.55 77.52 41.11 75.61 40.15C75.87 39.46 76 38.74 76 38.03C76 36.72 75.57 35.45 74.76 34.35C76.02 34.07 77.15 33.46 78.05 32.57C79.28 31.34 79.99 29.63 79.99 27.88C79.99 15.05 69.55 4.62 56.73 4.62H23.26C17.04 4.62 11.2 7.04 6.81 11.42C2.42 15.82 0 21.66 0 27.88C0 31 2.18 33.68 5.22 34.34C4.41 35.41 3.99 36.68 3.99 38.01C3.99 38.87 4.17 39.73 4.52 40.5C3.05 41.95 2.81 43.26 2.88 44.11C3.04 46.17 3.56 47.79 4.46 49.05C4.15 49.79 3.99 50.59 3.99 51.44C3.99 52.75 4.42 54.02 5.22 55.12C3.99 55.39 2.83 56.02 1.93 56.9C0.7 58.13 0 59.84 0 61.59C0 69.2 6.19 75.39 13.8 75.39H66.21C69.89 75.39 73.35 73.96 75.97 71.35C78.57 68.73 80.01 65.27 80.01 61.59C80.01 58.47 77.83 55.79 74.79 55.13H74.78ZM76.15 30.67C75.41 31.41 74.4 31.83 73.38 31.83H6.62C4.45 31.83 2.69 30.07 2.69 27.9C2.69 22.4 4.83 17.23 8.73 13.35C12.62 9.46 17.78 7.32 23.26 7.32H56.73C68.07 7.32 77.3 16.55 77.3 27.89C77.3 28.93 76.88 29.94 76.14 30.66L76.15 30.67ZM15.9 41.54L21.51 34.52H26.81L21.2 41.54H15.91H15.9ZM33.38 41.54L38.97 34.52H53L47.39 41.54H33.37H33.38ZM24.63 41.54L30.24 34.52H35.54L29.93 41.54H24.63ZM50.85 41.54L56.46 34.52H61.76L56.15 41.54H50.85ZM72.52 40.25C71.87 41.06 70.89 41.53 69.81 41.53H59.59L65.2 34.51H69.82C70.76 34.51 71.64 34.88 72.3 35.54C72.97 36.22 73.33 37.1 73.33 38.02C73.33 38.84 73.05 39.61 72.53 40.25H72.52ZM10.19 34.52H18.07L12.46 41.54H10.19C9.25 41.54 8.37 41.17 7.72 40.51C7.56 40.35 7.44 40.22 7.33 40.04C6.91 39.46 6.69 38.77 6.69 38.04C6.69 36.1 8.27 34.53 10.2 34.53L10.19 34.52ZM6.28 42.81C6.33 42.85 6.39 42.89 6.45 42.93L6.52 42.99C6.63 43.08 6.74 43.17 6.86 43.23C7 43.32 7.15 43.4 7.29 43.47C7.35 43.5 7.41 43.53 7.47 43.56C7.52 43.58 7.56 43.61 7.61 43.63C7.7 43.68 7.8 43.73 7.89 43.77C8.09 43.85 8.33 43.92 8.64 43.99C8.7 44 8.76 44.02 8.81 44.04C8.87 44.06 8.94 44.08 9.01 44.1C9.42 44.17 9.81 44.21 10.19 44.21H69.81C70.22 44.21 70.65 44.17 71.12 44.07C71.22 44.05 71.31 44.02 71.41 43.99C71.45 43.98 71.49 43.96 71.54 43.95C71.81 43.87 72.07 43.79 72.34 43.67C72.46 43.62 72.56 43.56 72.66 43.5C72.71 43.47 72.75 43.45 72.8 43.42C73.02 43.3 73.24 43.17 73.45 43.02C73.6 42.91 73.73 42.8 73.85 42.68L73.88 42.66C73.88 42.66 73.96 42.59 74 42.56C74.05 42.52 74.11 42.48 74.16 42.43C74.67 42.52 75.21 43.01 75.43 45.54C75.61 47.69 74.75 48.23 73.97 48.46C72.63 48.87 70.41 48.61 67.71 47.73C64.72 46.74 62.44 46.85 60.93 48.06C60.04 48.78 59.04 50.25 59.33 53.12C59.45 54.29 59.44 55.28 59.32 56.07C59.09 57.33 58.62 57.55 58.43 57.63C57.57 57.96 55.52 57.5 52.38 55.2C50.06 53.54 48.01 51.52 47.19 50.37C46.97 50.09 46.72 49.83 46.46 49.63L46.42 49.59C46.16 49.4 45.88 49.24 45.56 49.11C45.54 49.11 45.52 49.09 45.48 49.08C45.22 48.98 44.93 48.9 44.56 48.82C44.56 48.82 44.54 48.82 44.52 48.81H44.48C44.16 48.74 43.84 48.71 43.51 48.71H43.28C43.1 48.71 42.92 48.72 42.74 48.74C42.65 48.74 42.56 48.75 42.47 48.75C42.38 48.75 42.28 48.75 42.19 48.76C42.06 48.76 41.93 48.79 41.79 48.81C41.72 48.82 41.64 48.83 41.56 48.84C41.5 48.84 41.43 48.86 41.37 48.86C41.24 48.88 41.11 48.89 40.99 48.92C40.76 48.96 40.53 49 40.31 49.04C40.22 49.05 40.13 49.07 40.04 49.09C39.95 49.11 39.87 49.12 39.77 49.14H39.7C39.32 49.23 38.93 49.31 38.56 49.4C36.06 49.93 33.23 50.54 32.18 49.45C27.57 44.68 22.02 45.89 14.07 48.29C12.38 48.8 10.94 49.03 9.78 48.96H9.75C9.53 48.95 9.34 48.92 9.13 48.88C9.09 48.88 9.05 48.87 9.02 48.86C8.99 48.86 8.96 48.86 8.93 48.85C8.73 48.81 8.54 48.75 8.32 48.68C8.3 48.68 8.28 48.67 8.27 48.67C8.25 48.67 8.24 48.67 8.21 48.64C7.75 48.47 7.38 48.23 7.07 47.92C6.21 47.14 5.74 45.87 5.59 43.91C5.57 43.58 5.77 43.15 6.17 42.69C6.21 42.72 6.26 42.76 6.31 42.79L6.28 42.81ZM8.02 51.45C8.33 51.52 8.64 51.57 8.97 51.62C8.98 51.62 9 51.62 9.01 51.62C9.04 51.62 9.07 51.62 9.09 51.62C9.46 51.66 9.85 51.68 10.26 51.66C10.32 51.66 10.38 51.66 10.43 51.66C10.48 51.66 10.52 51.66 10.57 51.66C10.85 51.65 11.13 51.62 11.43 51.6H11.51C11.58 51.59 11.66 51.57 11.74 51.56C11.81 51.56 11.87 51.54 11.94 51.53C12.24 51.49 12.56 51.42 12.87 51.36L13.32 51.27C13.84 51.15 14.31 51.03 14.77 50.89L15.15 50.78C15.43 50.69 15.71 50.61 15.99 50.53L12.46 54.97H10.19C9.25 54.97 8.37 54.6 7.72 53.94C7.05 53.27 6.68 52.39 6.68 51.47C6.68 51.3 6.68 51.15 6.71 51.01C6.72 51.01 6.74 51.02 6.75 51.03L7.08 51.17C7.28 51.24 7.49 51.32 7.71 51.39L7.83 51.42C7.89 51.44 7.95 51.45 8.01 51.47L8.02 51.45ZM20.36 49.38C22.64 48.9 24.42 48.79 25.92 49.04L21.19 54.96H15.9L20.36 49.38ZM28.58 50.03C29.22 50.43 29.73 50.84 30.18 51.32C30.67 51.82 31.25 52.18 31.95 52.42L29.93 54.96H24.63L28.58 50.03ZM35.18 52.7C36.44 52.59 37.79 52.31 39.06 52.04H39.12C41.63 51.5 44.22 50.95 45 51.99L45.05 52.06C45.18 52.23 45.32 52.42 45.49 52.6C45.52 52.64 45.55 52.67 45.59 52.71C45.62 52.74 45.65 52.77 45.67 52.8C45.81 52.96 45.96 53.13 46.12 53.31C46.2 53.39 46.28 53.47 46.36 53.56C46.44 53.65 46.53 53.74 46.62 53.83C46.71 53.92 46.8 54.01 46.89 54.11L47.57 54.75L47.41 54.95H33.38L35.18 52.69V52.7ZM69.81 54.96H62.1V53.98C62.09 53.63 62.06 53.26 62.02 52.86C61.89 51.53 62.1 50.6 62.64 50.18C63.36 49.6 64.87 49.64 66.89 50.31C67.5 50.51 68.05 50.67 68.58 50.8L68.92 50.88C69.41 50.99 69.93 51.11 70.44 51.19C70.47 51.19 70.51 51.2 70.54 51.21C70.56 51.21 70.59 51.21 70.62 51.22C71.07 51.29 71.51 51.33 71.93 51.34C71.96 51.34 71.99 51.34 72.03 51.34C72.07 51.34 72.11 51.34 72.15 51.34C72.58 51.35 72.96 51.34 73.33 51.3C73.33 51.34 73.33 51.39 73.33 51.43C73.33 53.37 71.75 54.94 69.82 54.94L69.81 54.96ZM3.85 58.81C4.59 58.07 5.6 57.65 6.62 57.65H51.14C51.22 57.71 51.3 57.76 51.38 57.8C51.64 57.98 51.88 58.14 52.13 58.31C52.19 58.35 52.26 58.39 52.32 58.43C52.39 58.48 52.47 58.52 52.54 58.57C52.72 58.68 52.9 58.78 53.08 58.88L53.63 59.2C53.98 59.39 54.33 59.56 54.67 59.7C54.74 59.72 54.81 59.75 54.88 59.78C55.16 59.9 55.42 59.99 55.65 60.06H55.7C55.78 60.1 55.86 60.12 55.94 60.15C56.16 60.22 56.39 60.26 56.61 60.3C56.65 60.3 56.69 60.32 56.74 60.32C56.79 60.33 56.83 60.34 56.88 60.35C57.18 60.4 57.42 60.42 57.65 60.42H57.77C57.97 60.42 58.14 60.4 58.32 60.37H58.36C58.36 60.37 58.43 60.36 58.47 60.35C58.51 60.35 58.56 60.35 58.61 60.33C58.91 60.27 59.17 60.2 59.4 60.11C59.52 60.07 59.64 60.01 59.74 59.96C59.75 59.96 59.77 59.94 59.78 59.93C59.79 59.93 59.8 59.91 59.83 59.9C59.91 59.86 60 59.8 60.09 59.74C60.11 59.72 60.13 59.71 60.15 59.7C60.17 59.69 60.18 59.68 60.2 59.66C60.26 59.62 60.31 59.58 60.36 59.53C60.39 59.51 60.41 59.49 60.43 59.47C60.46 59.45 60.48 59.43 60.5 59.41C60.51 59.4 60.52 59.39 60.55 59.36C60.63 59.28 60.72 59.19 60.79 59.1C60.81 59.08 60.83 59.06 60.84 59.04C60.85 59.03 60.86 59.01 60.88 59C61.09 58.76 61.28 58.44 61.49 58.01C61.49 57.99 61.5 57.97 61.51 57.96C61.52 57.93 61.53 57.9 61.54 57.88C61.55 57.84 61.57 57.81 61.59 57.77C61.61 57.73 61.63 57.69 61.64 57.65H73.35C75.52 57.65 77.28 59.41 77.28 61.58C77.31 64.52 76.17 67.3 74.08 69.39L74.04 69.43C71.94 71.53 69.15 72.69 66.19 72.69H13.8C7.68 72.69 2.69 67.71 2.69 61.58C2.69 60.54 3.11 59.53 3.85 58.81Z" fill="black"/>
</g>
<defs>
<clipPath id="clip0_396_159">
<rect width="80" height="80" fill="white"/>
</clipPath>
</defs>
</svg>
