<svg width="80" height="80" viewBox="0 0 80 80" fill="none" xmlns="http://www.w3.org/2000/svg">
<g clip-path="url(#clip0_49_181)">
<path d="M15.5799 28.88C15.5799 28.53 15.4399 28.2 15.1899 27.95C14.9399 27.7 14.6099 27.56 14.2599 27.56C13.5299 27.56 12.9399 28.15 12.9399 28.88C12.9399 29.23 13.0799 29.56 13.3299 29.81C13.5799 30.06 13.9099 30.2 14.2599 30.2C14.9899 30.2 15.5799 29.61 15.5799 28.88Z" fill="#283034"/>
<path d="M21.1599 27.9401C20.9099 27.6901 20.5799 27.55 20.2299 27.55C19.4999 27.55 18.9099 28.1401 18.9099 28.8701C18.9099 29.2201 19.0499 29.55 19.2999 29.8C19.5499 30.05 19.8799 30.1901 20.2299 30.1901C20.5799 30.1901 20.9099 30.05 21.1599 29.8C21.4099 29.55 21.5499 29.2201 21.5499 28.8701C21.5499 28.5201 21.4099 28.1901 21.1599 27.9401Z" fill="#283034"/>
<path d="M26.1901 27.56C25.8401 27.56 25.5101 27.7 25.2601 27.95C25.0101 28.2 24.8701 28.53 24.8701 28.88C24.8701 29.23 25.0101 29.56 25.2601 29.81C25.5101 30.06 25.8401 30.2 26.1901 30.2C26.9201 30.2 27.5101 29.61 27.5101 28.88C27.5101 28.15 26.9201 27.56 26.1901 27.56Z" fill="#283034"/>
<path d="M32.1601 27.56C31.8101 27.56 31.4801 27.7 31.2301 27.95C30.9801 28.2 30.8401 28.53 30.8401 28.88C30.8401 29.23 30.9801 29.56 31.2301 29.81C31.4801 30.06 31.8101 30.2 32.1601 30.2C32.5101 30.2 32.8401 30.06 33.0901 29.81C33.3401 29.56 33.4801 29.23 33.4801 28.88C33.4801 28.53 33.3401 28.2 33.0901 27.95C32.8401 27.7 32.5101 27.56 32.1601 27.56Z" fill="#283034"/>
<path d="M28.39 33.44C28.36 34.17 28.93 34.78 29.67 34.81C30.36 34.79 30.92 34.23 30.94 33.54C30.95 33.19 30.83 32.85 30.59 32.59C30.35 32.33 30.02 32.18 29.67 32.17C28.98 32.19 28.42 32.75 28.4 33.44H28.39Z" fill="#283034"/>
<path d="M23.45 32.38C23.38 32.33 23.3 32.29 23.22 32.26C23.14 32.23 23.06 32.2 22.97 32.18C22.8 32.15 22.63 32.15 22.46 32.18C22.38 32.2 22.29 32.22 22.21 32.26C22.13 32.29 22.05 32.33 21.98 32.38C21.91 32.43 21.84 32.49 21.78 32.55C21.27 33.06 21.27 33.9 21.78 34.42C21.84 34.48 21.91 34.54 21.98 34.59C22.05 34.64 22.13 34.68 22.21 34.71C22.29 34.74 22.37 34.77 22.46 34.79C22.55 34.81 22.63 34.82 22.72 34.82C22.8 34.82 22.89 34.82 22.97 34.79C23.05 34.77 23.14 34.75 23.22 34.71C23.3 34.68 23.38 34.64 23.45 34.59C23.52 34.54 23.59 34.48 23.65 34.42L23.67 34.4C23.91 34.15 24.04 33.83 24.04 33.48C24.04 33.13 23.9 32.8 23.65 32.55C23.59 32.49 23.52 32.43 23.45 32.38Z" fill="#283034"/>
<path d="M14.5199 33.44C14.4899 34.17 15.0699 34.78 15.7999 34.81C16.4899 34.79 17.0499 34.23 17.0699 33.54C17.0799 33.19 16.9599 32.85 16.7199 32.59C16.4799 32.33 16.1499 32.18 15.7999 32.17C15.1099 32.19 14.5499 32.75 14.5299 33.44H14.5199Z" fill="#283034"/>
<path d="M8.90998 32.17C8.90998 32.17 8.87998 32.17 8.85998 32.17C8.16998 32.19 7.60998 32.75 7.58998 33.44C7.55998 34.17 8.13998 34.78 8.85998 34.81C8.87998 34.81 8.88998 34.81 8.90998 34.81C8.92998 34.81 8.93998 34.81 8.95998 34.81C9.30998 34.8 9.63998 34.65 9.87998 34.39C10.12 34.13 10.25 33.8 10.23 33.44C10.22 33.09 10.07 32.76 9.80998 32.52C9.55998 32.29 9.24998 32.17 8.90998 32.17Z" fill="#283034"/>
<path d="M29.6701 36.78C29.3201 36.78 28.9901 36.92 28.7401 37.17C28.4901 37.42 28.3501 37.75 28.3501 38.1C28.3501 38.45 28.4901 38.78 28.7401 39.03C28.9901 39.28 29.3201 39.42 29.6701 39.42C30.4001 39.42 30.9901 38.83 30.9901 38.1C30.9901 37.75 30.8501 37.42 30.6001 37.17C30.3501 36.92 30.0201 36.78 29.6701 36.78Z" fill="#283034"/>
<path d="M23.2299 36.88C23.1499 36.85 23.0699 36.82 22.9799 36.8C22.8099 36.77 22.6399 36.77 22.4699 36.8C22.3899 36.82 22.2999 36.84 22.2199 36.88C22.0599 36.95 21.9199 37.04 21.7899 37.17C21.5399 37.42 21.3999 37.75 21.3999 38.1C21.3999 38.45 21.5399 38.78 21.7899 39.03C21.8499 39.09 21.9199 39.15 21.9899 39.2C22.0599 39.25 22.1399 39.29 22.2199 39.32C22.2999 39.35 22.3799 39.38 22.4699 39.4C22.5599 39.42 22.6499 39.42 22.7399 39.43C22.8199 39.43 22.8999 39.43 22.9899 39.41C23.0799 39.39 23.1599 39.37 23.2399 39.33C23.3199 39.29 23.3999 39.25 23.4699 39.21C23.6099 39.11 23.7399 38.99 23.8299 38.85C24.2399 38.25 24.0699 37.42 23.4699 37.02C23.3999 36.97 23.3199 36.93 23.2299 36.89V36.88Z" fill="#283034"/>
<path d="M15.79 36.78C15.44 36.78 15.11 36.92 14.86 37.17C14.61 37.42 14.47 37.75 14.47 38.1C14.47 38.45 14.61 38.78 14.86 39.03C15.11 39.28 15.44 39.42 15.79 39.42C16.52 39.42 17.11 38.83 17.11 38.1C17.11 37.75 16.97 37.42 16.72 37.17C16.47 36.92 16.14 36.78 15.79 36.78Z" fill="#283034"/>
<path d="M8.86004 36.78C8.51004 36.78 8.17004 36.92 7.93004 37.17C7.68004 37.42 7.54004 37.75 7.54004 38.1C7.54004 38.45 7.68004 38.78 7.93004 39.03C8.18004 39.28 8.51004 39.42 8.86004 39.42C9.21004 39.42 9.54004 39.28 9.79004 39.03C10.04 38.78 10.18 38.45 10.18 38.1C10.18 37.75 10.04 37.42 9.79004 37.17C9.54004 36.92 9.21004 36.78 8.86004 36.78Z" fill="#283034"/>
<path d="M23.2 22.95C22.51 22.97 21.95 23.53 21.93 24.22C21.92 24.57 22.04 24.91 22.28 25.17C22.52 25.43 22.85 25.58 23.2 25.59C23.89 25.57 24.45 25.01 24.47 24.32C24.5 23.59 23.93 22.98 23.2 22.95Z" fill="#283034"/>
<path d="M30.46 24.32C30.49 23.59 29.91 22.98 29.18 22.95C28.49 22.97 27.93 23.53 27.91 24.22C27.9 24.57 28.02 24.91 28.26 25.17C28.5 25.43 28.83 25.58 29.18 25.59C29.87 25.57 30.43 25.01 30.45 24.32H30.46Z" fill="#283034"/>
<path d="M78.68 15.18H71.57C70.97 15.18 70.45 15.58 70.3 16.16L69.2 20.24V11.59C69.2 10.86 68.61 10.27 67.88 10.27H61.02C60.29 10.27 59.7 10.86 59.7 11.59V18.15H56.35C55.62 18.15 55.03 18.74 55.03 19.47V31.26C54.92 31.33 54.81 31.39 54.7 31.44V19.18C54.7 18.45 54.11 17.86 53.38 17.86H46.52C45.79 17.86 45.2 18.45 45.2 19.18V23.62H41.56C37.08 20.33 31.78 18.6 26.23 18.6H26.19C12.39 18.6 1.16 29.3 1.16 42.45C1.16 43.18 1.75 43.77 2.48 43.77H3.66C3.2 44.58 2.97 45.5 2.98 46.43C3 47.37 3.27 48.29 3.76 49.08C1.54 49.7 0 51.86 0 54.35V57.89C0 58.28 0.17 58.65 0.48 58.91C1.04 59.37 1.87 59.3 2.34 58.74C2.36 58.71 2.39 58.68 2.41 58.66V59.84C2.41 63.44 5.35 66.37 8.95 66.38H42.08C42.36 67.21 43.38 69.73 45.54 69.73H70.66C72.93 69.73 74.17 66.93 74.45 65.06L79.67 29.83C79.77 29.18 79.37 28.55 78.74 28.36C78.41 28.26 78.05 28.3 77.74 28.47C77.43 28.64 77.21 28.92 77.11 29.26C76.95 29.78 76.67 30.26 76.28 30.66L79.98 16.85C80.01 16.74 80.02 16.63 80.03 16.51C80.03 15.78 79.44 15.19 78.71 15.19L78.68 15.18ZM64.24 56.3L63.18 67.09H59.42V57.44C61.14 57.31 62.76 56.93 64.24 56.31V56.3ZM56.78 57.43V67.08H53.02L51.96 56.29C53.45 56.91 55.07 57.29 56.78 57.42V57.43ZM52.96 34.47H52.98H53.01C54.37 34.47 55.67 34.05 56.77 33.27V39.24C54.44 39.42 52.25 40.07 50.43 41.12L49.6 33.54C50.61 34.15 51.77 34.47 52.96 34.47ZM61.89 31.61C60.81 31.24 59.98 30.44 59.61 29.41C59.42 28.89 58.92 28.54 58.37 28.54H57.82C57.82 28.54 57.72 28.54 57.67 28.54V20.8H61.89V31.61ZM66.56 29.92C66.13 30.7 65.41 31.29 64.53 31.6V19.47C64.53 18.74 63.94 18.15 63.21 18.15H62.34V12.91H66.56V29.92ZM63.21 34.47H63.23C64.42 34.47 65.58 34.14 66.59 33.54L65.76 41.12C63.93 40.07 61.74 39.42 59.41 39.24V33.27C60.52 34.05 61.82 34.47 63.18 34.47C63.18 34.47 63.19 34.47 63.2 34.47H63.21ZM65.88 44.42C65.88 44.42 65.96 44.5 66.01 44.54C67.23 45.66 67.88 46.97 67.88 48.33C67.88 49.98 66.92 51.56 65.19 52.79C63.32 54.11 60.8 54.84 58.1 54.84C55.4 54.84 52.89 54.11 51.01 52.79C49.27 51.57 48.32 49.98 48.32 48.33C48.32 46.68 49.28 45.1 51.01 43.87C52.89 42.55 55.4 41.82 58.1 41.82C60.8 41.82 63.31 42.55 65.19 43.87C65.43 44.04 65.66 44.22 65.89 44.42H65.88ZM52.06 31.73C51.3 31.55 50.6 31.14 50.09 30.57L48.49 24.6C48.4 24.25 48.16 23.95 47.84 23.78V20.51H52.06V31.73ZM45.68 48.34C45.68 50.74 46.91 52.99 49.14 54.69L50.36 67.09H45.54C45.34 67.09 44.58 66.09 44.37 64.67L39.79 33.76C40.71 34.22 41.73 34.47 42.75 34.47C42.75 34.47 42.77 34.47 42.78 34.47C44.27 34.47 45.73 33.95 46.89 33.01L47.99 43C46.48 44.55 45.69 46.39 45.69 48.33L45.68 48.34ZM46.35 29.41C45.89 30.69 44.73 31.6 43.31 31.8L41.82 26.27H46.19L46.86 28.76C46.62 28.92 46.44 29.14 46.35 29.41ZM67.06 54.69C69.29 52.99 70.52 50.73 70.52 48.34C70.52 46.4 69.72 44.55 68.22 43.01L69.32 33.02C70.48 33.96 71.93 34.48 73.43 34.48C73.43 34.48 73.45 34.48 73.46 34.48C73.77 34.48 74.09 34.45 74.42 34.41C74.45 34.41 74.49 34.41 74.51 34.4C75.18 34.29 75.83 34.08 76.42 33.78L71.84 64.68C71.63 66.09 70.86 67.1 70.67 67.1H65.85L67.07 54.7L67.06 54.69ZM69.59 28.98L72.59 17.82H76.96L73.2 31.83C71.65 31.74 70.33 30.8 69.84 29.41C69.79 29.26 69.7 29.11 69.59 28.99V28.98ZM40.38 31.04C39.77 30.58 39.32 29.95 39.11 29.25C38.92 28.62 38.29 28.22 37.64 28.32C37.29 28.37 36.99 28.56 36.78 28.85C36.57 29.14 36.49 29.48 36.54 29.83L38.21 41.13H3.84C4.57 29.97 14.38 21.24 26.2 21.24H26.23C30.69 21.24 35.03 22.51 38.79 24.92C38.79 25.05 38.8 25.17 38.83 25.29L40.37 31.04H40.38ZM7.96 48.91C7.27 48.87 6.64 48.56 6.19 48.05C5.74 47.54 5.51 46.87 5.55 46.19C5.63 44.88 6.68 43.85 7.98 43.78H38.6L39.36 48.92H7.96V48.91ZM2.63 54.36C2.63 52.81 3.7 51.55 5.01 51.55H39.75L40.36 55.65C39.17 54.94 37.71 54.55 36.24 54.55C34.36 54.55 32.53 55.18 31.21 56.29C29.9 55.18 28.07 54.55 26.18 54.55C24.29 54.55 22.46 55.18 21.15 56.29C19.83 55.18 18 54.55 16.12 54.55C14.24 54.55 12.41 55.18 11.09 56.29C9.78 55.18 7.95 54.55 6.06 54.55H6.03C4.86 54.55 3.68 54.81 2.62 55.29V54.36H2.63ZM5.05 57.28C5.39 57.22 5.74 57.19 6.09 57.19C7.75 57.19 9.29 57.89 10.02 58.98C10.12 59.12 10.24 59.24 10.38 59.34C10.67 59.54 11.02 59.6 11.37 59.54C11.72 59.47 12.01 59.27 12.21 58.98C12.94 57.89 14.48 57.19 16.14 57.19C17.8 57.19 19.34 57.89 20.07 58.98C20.17 59.12 20.29 59.24 20.43 59.34C21.04 59.74 21.86 59.58 22.26 58.98C22.99 57.89 24.53 57.19 26.19 57.19C27.85 57.19 29.39 57.89 30.12 58.98C30.37 59.35 30.77 59.57 31.21 59.57C31.65 59.57 32.06 59.35 32.3 58.99C33.03 57.9 34.58 57.2 36.23 57.2C37.88 57.2 39.43 57.9 40.16 58.99C40.34 59.26 40.6 59.45 40.91 59.53L41.53 63.74H8.95C6.8 63.74 5.05 61.99 5.05 59.84V57.29V57.28Z" fill="#283034"/>
<path d="M54.9901 48.29C54.9801 48.64 55.1001 48.98 55.3401 49.24C55.5801 49.5 55.9101 49.65 56.2601 49.66H59.9301C59.9301 49.66 59.9601 49.66 59.9801 49.66C60.0001 49.66 60.0101 49.66 60.0301 49.66C60.3801 49.65 60.7101 49.5 60.9501 49.24C61.1901 48.98 61.3201 48.65 61.3001 48.29C61.2801 47.93 61.1401 47.61 60.8801 47.37C60.6301 47.14 60.3201 47.02 59.9801 47.02C59.9601 47.02 59.9501 47.02 59.9301 47.02H56.2601C55.5701 47.05 55.0101 47.6 54.9901 48.29Z" fill="#283034"/>
</g>
<defs>
<clipPath id="clip0_49_181">
<rect width="80" height="80" fill="white"/>
</clipPath>
</defs>
</svg>
