<svg width="80" height="80" viewBox="0 0 80 80" fill="none" xmlns="http://www.w3.org/2000/svg">
<g clip-path="url(#clip0_396_264)">
<path d="M76.6601 43.52C76.4601 42.33 75.7001 41.9 75.0501 41.9H70.9101C71.8601 39.84 72.3701 37.58 72.3701 35.32C72.3701 26.7 65.3501 19.68 56.7301 19.68C56.2101 19.68 55.6801 19.71 55.0801 19.78C55.4501 18.43 55.6401 17.04 55.6401 15.64C55.6401 7.02 48.6201 0 40.0001 0C31.3801 0 24.3601 7.02 24.3601 15.64C24.3601 17.04 24.5501 18.43 24.9201 19.78C24.3201 19.71 23.7901 19.68 23.2801 19.68C14.6501 19.68 7.64008 26.7 7.64008 35.32C7.64008 37.58 8.14008 39.84 9.10008 41.9H4.96008C4.31008 41.9 3.54008 42.33 3.35008 43.52C2.96008 45.87 4.32008 53.44 7.80008 60.98C10.9401 67.79 16.7201 76.6 26.4501 79.93C26.5901 79.98 26.7401 80 26.8801 80H53.1701C53.3101 80 53.4601 79.98 53.6001 79.93C63.3201 76.6 69.1001 67.79 72.2401 60.98C75.7201 53.43 77.0801 45.86 76.6901 43.52H76.6601ZM74.0601 44.58C74.0401 47.01 72.7101 53.86 69.3301 60.81C66.4601 66.71 61.2901 74.36 52.9201 77.32H27.0801C18.7101 74.36 13.5401 66.72 10.6701 60.81C7.30008 53.87 5.96008 47.02 5.94008 44.58H74.0601ZM38.9201 35.32C38.9201 33.92 38.7301 32.53 38.3601 31.19C39.4801 31.31 40.5301 31.31 41.6401 31.19C41.2701 32.53 41.0901 33.92 41.0901 35.32C41.0901 37.58 41.5901 39.84 42.5501 41.9H37.4701C38.4301 39.85 38.9301 37.58 38.9301 35.32H38.9201ZM67.8901 41.9H45.5701C44.4001 39.91 43.7801 37.64 43.7801 35.32C43.7801 33.25 44.2601 31.27 45.2201 29.41L45.2801 29.3C45.3201 29.21 45.3701 29.12 45.4201 29.04C45.5701 28.77 45.7401 28.5 45.9001 28.24C45.9601 28.14 46.0301 28.05 46.1001 27.95C46.2901 27.68 46.4901 27.41 46.7001 27.15L46.8501 26.98C47.0901 26.7 47.3301 26.43 47.6101 26.14C48.4701 25.29 49.4401 24.55 50.5801 23.92C50.7401 23.83 50.9001 23.76 51.0601 23.69L51.3801 23.54C51.5401 23.47 51.7001 23.39 51.8601 23.32C51.9901 23.27 52.1101 23.22 52.2401 23.18L52.3801 23.13C52.6501 23.03 52.9201 22.94 53.2001 22.86C54.3701 22.53 55.5701 22.36 56.7401 22.36C63.8801 22.36 69.6901 28.17 69.6901 35.32C69.6901 37.64 69.0701 39.91 67.9001 41.9H67.8901ZM52.0601 20.38C48.7101 21.42 45.7901 23.6 43.8101 26.52L43.7401 26.62C43.5101 26.96 43.3001 27.32 43.0801 27.7C43.0201 27.81 42.9601 27.91 42.9001 28.02L42.8101 28.19C42.8101 28.19 42.7701 28.27 42.7401 28.3C40.9501 28.69 39.0601 28.69 37.2501 28.3C37.2301 28.27 37.2201 28.24 37.2001 28.21L37.1101 28.04C37.0401 27.91 36.9701 27.78 36.9001 27.65C36.7001 27.3 36.5001 26.96 36.2801 26.63L36.1801 26.49C34.2001 23.58 31.2801 21.42 27.9501 20.38C27.3501 18.88 27.0501 17.28 27.0501 15.64C27.0501 8.5 32.8601 2.69 40.0001 2.69C47.1401 2.69 52.9501 8.5 52.9501 15.64C52.9501 17.28 52.6501 18.88 52.0501 20.38H52.0601ZM28.1501 23.32C28.3401 23.4 28.5301 23.49 28.7201 23.58L29.0101 23.72C29.1501 23.78 29.2901 23.85 29.4301 23.92L29.6601 24.06C30.6401 24.62 31.5401 25.29 32.3401 26.07C32.3401 26.07 32.4701 26.19 32.4701 26.2C32.7001 26.43 32.9201 26.68 33.1301 26.92L33.3701 27.2C33.5501 27.42 33.7201 27.66 33.8901 27.89C33.9901 28.04 34.0901 28.18 34.1901 28.34C34.3301 28.55 34.4601 28.76 34.5801 28.98C34.7001 29.18 34.8001 29.4 34.9101 29.61C35.8001 31.42 36.2601 33.34 36.2601 35.33C36.2601 37.66 35.6401 39.93 34.4701 41.91H12.1201C10.9501 39.92 10.3301 37.65 10.3301 35.33C10.3301 28.19 16.1401 22.37 23.2801 22.37C24.4501 22.37 25.6301 22.54 26.8101 22.87C27.1001 22.95 27.3901 23.05 27.6701 23.15L27.8201 23.2C27.9301 23.24 28.0501 23.28 28.1601 23.33L28.1501 23.32Z" fill="black"/>
<path d="M20.3 29.58C20.71 29.58 21.08 29.4 21.34 29.09L22.9 27.18C23.13 26.9 23.23 26.55 23.2 26.2C23.16 25.84 22.99 25.52 22.71 25.3C22.43 25.07 22.09 24.97 21.72 25.01C21.36 25.05 21.04 25.22 20.82 25.5L19.26 27.41C19.03 27.69 18.93 28.03 18.96 28.39C19 28.75 19.17 29.07 19.45 29.3C19.69 29.49 19.99 29.6 20.3 29.6V29.58Z" fill="black"/>
<path d="M23.9402 26.67C23.7702 26.98 23.7302 27.35 23.8302 27.69C23.9302 28.03 24.1602 28.32 24.4702 28.49L27.4402 30.12C27.6202 30.22 27.8102 30.27 28.0202 30.28C28.0402 30.28 28.0602 30.28 28.0802 30.28C28.5702 30.28 29.0202 30.01 29.2602 29.58C29.6202 28.93 29.3802 28.12 28.7302 27.76L25.7602 26.13C25.1102 25.77 24.3002 26.01 23.9402 26.66V26.67Z" fill="black"/>
<path d="M28.7401 33.35C28.6901 33.7 28.7801 34.05 28.9901 34.34C29.2401 34.68 29.6501 34.89 30.0701 34.89C30.3601 34.89 30.6301 34.8 30.8701 34.63L32.7801 33.21C33.3701 32.77 33.5001 31.93 33.0601 31.33C32.8501 31.04 32.5301 30.85 32.1801 30.8C31.8201 30.75 31.4701 30.84 31.1901 31.05L29.2801 32.47C28.9901 32.69 28.8001 33 28.7501 33.36L28.7401 33.35Z" fill="black"/>
<path d="M24.7401 30.53C24.3301 29.92 23.4901 29.76 22.8801 30.17C22.2701 30.58 22.1101 31.42 22.5201 32.03L24.7101 35.28C24.9501 35.64 25.3401 35.85 25.7601 35.87C25.7801 35.87 25.8001 35.87 25.8201 35.87C26.0901 35.87 26.3501 35.79 26.5701 35.64C26.8701 35.44 27.0701 35.14 27.1401 34.78C27.2101 34.42 27.1401 34.07 26.9401 33.77L24.7401 30.51V30.53Z" fill="black"/>
<path d="M20.81 34.6L21.87 32.26C22.02 31.93 22.03 31.57 21.9 31.23C21.77 30.89 21.52 30.63 21.2 30.48C20.53 30.17 19.73 30.48 19.42 31.15L18.36 33.49C18.06 34.16 18.36 34.96 19.03 35.26C19.21 35.34 19.4 35.38 19.58 35.38C19.6 35.38 19.62 35.38 19.64 35.38C20.14 35.35 20.59 35.05 20.8 34.6H20.81Z" fill="black"/>
<path d="M15.8101 28.11L12.8401 30.09C12.5401 30.29 12.3401 30.59 12.2701 30.94C12.2001 31.29 12.2701 31.65 12.4701 31.95C12.7201 32.32 13.1401 32.55 13.5901 32.55C13.8601 32.55 14.1201 32.47 14.3301 32.33L17.3001 30.35C17.9101 29.94 18.0801 29.11 17.6701 28.49C17.2601 27.87 16.4201 27.71 15.8101 28.12V28.11Z" fill="black"/>
<path d="M15.41 32.5C14.68 32.62 14.18 33.31 14.3 34.04L14.86 37.51C14.97 38.16 15.53 38.63 16.19 38.63C16.26 38.63 16.33 38.63 16.4 38.61C16.75 38.55 17.06 38.36 17.27 38.07C17.48 37.78 17.57 37.42 17.51 37.07L16.94 33.6C16.82 32.87 16.13 32.37 15.4 32.49L15.41 32.5Z" fill="black"/>
<path d="M24.0001 37.8L21.9401 37.09C21.2401 36.85 20.4801 37.23 20.2301 37.92C20.1101 38.26 20.1401 38.62 20.2901 38.94C20.4501 39.26 20.7201 39.5 21.0601 39.62L23.1101 40.33C23.2601 40.38 23.4001 40.41 23.5501 40.41C24.1201 40.41 24.6301 40.05 24.8201 39.5C25.0601 38.8 24.6801 38.04 23.9901 37.79L24.0001 37.8Z" fill="black"/>
<path d="M32.35 36.18C31.2 36.79 30 37.33 29.8 37.37C29.09 37.41 28.52 37.99 28.52 38.71C28.52 39.43 29.12 40.05 29.86 40.05C29.88 40.05 29.9 40.05 29.92 40.05C30.33 40.03 31.18 39.83 33.6 38.55C33.92 38.38 34.15 38.1 34.26 37.76C34.37 37.42 34.33 37.05 34.17 36.74C34 36.42 33.72 36.19 33.38 36.08C33.04 35.97 32.67 36.01 32.36 36.17L32.35 36.18Z" fill="black"/>
<path d="M53.74 29.58C54.14 29.58 54.52 29.4 54.77 29.09L56.33 27.18C56.56 26.9 56.66 26.55 56.63 26.2C56.59 25.84 56.42 25.52 56.15 25.3C55.87 25.07 55.52 24.97 55.17 25C54.81 25.04 54.49 25.21 54.26 25.49L52.7 27.4C52.47 27.68 52.37 28.02 52.4 28.38C52.44 28.74 52.61 29.06 52.89 29.29C53.12 29.48 53.42 29.59 53.73 29.59L53.74 29.58Z" fill="black"/>
<path d="M62.7101 29.59C63.0701 28.94 62.8301 28.13 62.1801 27.77L59.2101 26.14C58.9001 25.97 58.5301 25.93 58.1901 26.03C57.8401 26.13 57.5601 26.36 57.3901 26.67C57.2201 26.98 57.1801 27.35 57.2801 27.69C57.3801 28.03 57.6101 28.32 57.9201 28.49L60.9001 30.12C61.0801 30.22 61.2701 30.27 61.4801 30.28C61.5001 30.28 61.5201 30.28 61.5401 30.28C62.0301 30.28 62.4901 30.01 62.7201 29.58L62.7101 29.59Z" fill="black"/>
<path d="M64.63 31.05L62.72 32.47C62.43 32.69 62.24 33 62.19 33.36C62.14 33.71 62.23 34.07 62.44 34.35C62.69 34.69 63.09 34.9 63.52 34.9C63.8 34.9 64.09 34.81 64.32 34.64L66.23 33.22C66.52 33 66.71 32.69 66.76 32.33C66.81 31.98 66.72 31.62 66.51 31.34C66.3 31.05 65.98 30.86 65.63 30.81C65.27 30.76 64.92 30.85 64.64 31.06L64.63 31.05Z" fill="black"/>
<path d="M58.19 30.53C57.78 29.92 56.94 29.76 56.33 30.17C55.72 30.58 55.55 31.42 55.97 32.03L58.16 35.29C58.4 35.64 58.79 35.86 59.21 35.88C59.23 35.88 59.25 35.88 59.27 35.88C59.54 35.88 59.8 35.8 60.02 35.65C60.32 35.45 60.52 35.15 60.59 34.79C60.66 34.43 60.59 34.08 60.39 33.78L58.19 30.52V30.53Z" fill="black"/>
<path d="M54.26 34.6L55.32 32.26C55.63 31.59 55.32 30.79 54.65 30.48C54.32 30.33 53.96 30.32 53.62 30.45C53.28 30.58 53.02 30.83 52.87 31.15L51.81 33.49C51.51 34.16 51.81 34.96 52.48 35.26C52.66 35.34 52.84 35.38 53.04 35.38C53.06 35.38 53.08 35.38 53.1 35.38C53.6 35.35 54.05 35.05 54.26 34.6Z" fill="black"/>
<path d="M49.25 28.11L46.28 30.09C45.98 30.29 45.78 30.59 45.71 30.94C45.64 31.29 45.71 31.65 45.91 31.95C46.16 32.32 46.58 32.55 47.03 32.55C47.3 32.55 47.55 32.47 47.77 32.33L50.74 30.35C51.04 30.15 51.24 29.85 51.31 29.5C51.38 29.15 51.31 28.79 51.11 28.49C50.7 27.87 49.86 27.71 49.25 28.12V28.11Z" fill="black"/>
<path d="M49.8601 32.74C49.5701 32.53 49.2201 32.45 48.8601 32.5C48.5101 32.56 48.2001 32.75 47.9901 33.04C47.7801 33.33 47.7001 33.69 47.7601 34.04L48.3301 37.51C48.4401 38.16 48.9901 38.64 49.6601 38.64C49.7201 38.64 49.8001 38.64 49.8701 38.62C50.2201 38.56 50.5301 38.37 50.7401 38.08C50.9501 37.79 51.0301 37.43 50.9801 37.08L50.4101 33.61C50.3501 33.26 50.1601 32.95 49.8701 32.74H49.8601Z" fill="black"/>
<path d="M57.4502 37.8L55.4002 37.09C54.7002 36.85 53.9402 37.22 53.7002 37.92C53.5802 38.26 53.6002 38.62 53.7602 38.94C53.9202 39.26 54.1902 39.51 54.5302 39.62L56.5802 40.33C56.7202 40.38 56.8702 40.41 57.0302 40.41C57.6002 40.41 58.1102 40.05 58.3002 39.5C58.5402 38.8 58.1602 38.04 57.4702 37.79L57.4502 37.8Z" fill="black"/>
<path d="M65.79 36.18C64.64 36.79 63.44 37.33 63.24 37.37C62.53 37.41 61.96 37.99 61.96 38.71C61.96 39.43 62.56 40.05 63.3 40.05C63.32 40.05 63.34 40.05 63.36 40.05C63.99 40.02 65.19 39.53 67.03 38.55C67.35 38.38 67.58 38.1 67.69 37.76C67.8 37.42 67.76 37.05 67.59 36.73C67.42 36.41 67.14 36.18 66.79 36.07C66.45 35.97 66.09 36 65.77 36.17L65.79 36.18Z" fill="black"/>
<path d="M36.96 9.9C36.96 9.9 37 9.9 37.02 9.9C37.43 9.9 37.81 9.72 38.06 9.41L39.62 7.5C40.09 6.93 40 6.08 39.43 5.61C39.15 5.38 38.81 5.28 38.45 5.31C38.09 5.35 37.77 5.52 37.54 5.8L35.98 7.71C35.75 7.99 35.65 8.33 35.68 8.69C35.72 9.05 35.89 9.37 36.17 9.6C36.39 9.78 36.66 9.89 36.95 9.9H36.96Z" fill="black"/>
<path d="M45.99 9.90999C46.16 9.59999 46.2 9.22999 46.1 8.88999C46 8.54999 45.77 8.25999 45.46 8.08999L42.49 6.45999C41.84 6.10999 41.03 6.34999 40.67 6.98999C40.31 7.63999 40.55 8.44999 41.2 8.80999L44.17 10.43C44.36 10.54 44.59 10.6 44.82 10.6C45.31 10.6 45.76 10.33 45.99 9.89999V9.90999Z" fill="black"/>
<path d="M47.9101 11.37L46.0001 12.79C45.7101 13 45.5201 13.32 45.4701 13.67C45.4201 14.03 45.5101 14.38 45.7201 14.67C45.9601 14.99 46.3401 15.19 46.7301 15.21C46.7501 15.21 46.7701 15.21 46.7901 15.21C47.0801 15.21 47.3601 15.12 47.5901 14.94L49.5001 13.52C49.7901 13.3 49.98 12.99 50.03 12.63C50.08 12.28 49.99 11.93 49.78 11.64C49.57 11.35 49.2501 11.16 48.9001 11.11C48.5501 11.06 48.1901 11.15 47.9001 11.36L47.9101 11.37Z" fill="black"/>
<path d="M41.46 10.86C41.05 10.25 40.21 10.08 39.6 10.5C38.99 10.91 38.8301 11.75 39.2401 12.36L41.44 15.62C41.69 15.99 42.1 16.21 42.55 16.21C42.81 16.21 43.07 16.13 43.29 15.98C43.9 15.57 44.0601 14.73 43.6501 14.12L41.45 10.87L41.46 10.86Z" fill="black"/>
<path d="M37.54 14.92L38.6 12.58C38.75 12.25 38.76 11.89 38.63 11.55C38.5 11.21 38.25 10.95 37.93 10.8C37.26 10.49 36.46 10.8 36.15 11.47L35.09 13.81C34.79 14.48 35.09 15.28 35.76 15.58C35.94 15.66 36.13 15.7 36.31 15.7C36.33 15.7 36.35 15.7 36.37 15.7C36.87 15.68 37.32 15.37 37.53 14.92H37.54Z" fill="black"/>
<path d="M32.53 8.42999L29.56 10.41C28.94 10.82 28.78 11.66 29.19 12.27C29.44 12.65 29.85 12.87 30.31 12.87C30.58 12.87 30.83 12.79 31.05 12.65L34.02 10.67C34.64 10.26 34.8 9.41999 34.39 8.80999C33.98 8.19999 33.14 8.02999 32.53 8.43999V8.42999Z" fill="black"/>
<path d="M32.14 12.83C31.41 12.95 30.91 13.64 31.03 14.37L31.59 17.84C31.7 18.49 32.25 18.97 32.91 18.97C32.93 18.97 32.95 18.97 32.97 18.97C33.02 18.97 33.07 18.97 33.13 18.96C33.48 18.9 33.79 18.71 34 18.42C34.21 18.13 34.3 17.77 34.24 17.42L33.67 13.95C33.55 13.22 32.86 12.72 32.13 12.84L32.14 12.83Z" fill="black"/>
<path d="M40.72 18.12L38.67 17.41C37.97 17.17 37.21 17.55 36.96 18.24C36.84 18.58 36.87 18.94 37.02 19.27C37.18 19.59 37.45 19.84 37.79 19.95L39.85 20.66C39.99 20.71 40.14 20.73 40.28 20.73C40.3 20.73 40.32 20.73 40.34 20.73C40.89 20.7 41.37 20.35 41.54 19.83C41.66 19.49 41.64 19.13 41.48 18.8C41.32 18.48 41.05 18.24 40.71 18.12H40.72Z" fill="black"/>
<path d="M49.07 16.5C47.9 17.12 46.72 17.64 46.52 17.69C45.81 17.73 45.24 18.31 45.24 19.03C45.24 19.75 45.81 20.34 46.51 20.37C46.53 20.37 46.55 20.37 46.57 20.37C46.95 20.37 47.76 20.21 50.31 18.87C50.63 18.7 50.86 18.42 50.97 18.08C51.08 17.74 51.04 17.37 50.87 17.06C50.7 16.74 50.42 16.51 50.08 16.4C49.74 16.29 49.38 16.33 49.06 16.5H49.07Z" fill="black"/>
</g>
<defs>
<clipPath id="clip0_396_264">
<rect width="80" height="80" fill="white"/>
</clipPath>
</defs>
</svg>
