<svg width="80" height="80" viewBox="0 0 80 80" fill="none" xmlns="http://www.w3.org/2000/svg">
<g clip-path="url(#clip0_396_573)">
<path d="M78.6701 34.92C78.3301 34.71 77.9601 34.57 77.5601 34.53C77.2701 30.67 76.1401 28.16 72.4701 27.13C70.6901 26.48 69.1801 25.23 68.2301 23.59C66.2601 18.9 60.0001 14.23 55.0001 18.5C53.2301 15.72 49.8201 14.47 46.6801 15.46C44.5701 16.15 42.9001 17.76 42.1101 19.83C41.8201 20.54 41.5101 21.22 41.1901 21.86C40.2401 20.68 39.4401 19.39 38.8201 18.01C37.9501 16.23 36.3501 14.92 34.4301 14.42C32.5101 13.92 30.4701 14.28 28.8401 15.41C27.1501 16.66 25.7501 18.25 24.7301 20.09C21.8801 18.17 18.0701 18.54 15.6501 20.98C14.5901 22.03 13.0001 24.32 11.3601 24.46L7.60011 25.15C5.85011 25.41 4.29011 26.39 3.29011 27.85C2.29011 29.31 1.95011 31.12 2.35011 32.85C0.440107 34.06 -0.429893 36.4 0.210107 38.57L6.53011 62.54C6.97011 64.41 8.61011 65.75 10.5201 65.81H72.1001C74.2101 65.74 75.9501 64.14 76.1901 62.05L79.9501 37.94C80.1501 36.77 79.6401 35.59 78.6601 34.93L78.6701 34.92ZM56.3101 21.22C57.0001 20.36 58.0201 19.81 59.1201 19.71C60.2901 19.6 61.4701 19.96 62.3701 20.72C63.7501 21.81 64.8701 23.2 65.6301 24.79C66.9401 27.19 69.1001 29 71.6801 29.88C74.4501 30.77 74.4401 32.07 74.7501 35.53C67.1901 40.22 62.5801 41.92 60.2601 42.52L62.7901 33.01C63.6001 30.62 62.1001 27.76 58.4901 24.75C57.6001 23.9 56.1801 22.44 56.3001 21.23L56.3101 21.22ZM44.7501 20.88C45.2301 19.57 46.3101 18.56 47.6601 18.17C49.0101 17.78 50.4601 18.05 51.5701 18.91C52.4801 19.68 53.1101 20.74 53.3401 21.92C53.9501 23.87 55.1001 25.61 56.6601 26.94C59.1501 29.01 60.4701 30.99 60.0701 32.19L57.1701 43.08C48.7101 44.72 39.5401 42.06 39.4101 42.02C37.9401 41.62 36.3901 41.11 34.8501 40.56C35.2601 38.76 35.9101 35.93 36.0601 35.14C36.4501 33.03 37.5701 31.12 39.2401 29.77C39.7901 29.65 44.0401 23.35 44.7601 20.88H44.7501ZM30.5001 17.72C31.4501 17.08 32.6201 16.88 33.7201 17.18C34.8201 17.48 35.7401 18.24 36.2401 19.26C37.0801 21.18 38.2601 22.94 39.7201 24.44C39.0001 25.6 38.1801 26.69 37.2601 27.71C35.1601 29.46 33.7501 31.9 33.2501 34.59C33.1101 35.31 32.5401 37.78 32.1401 39.54C29.0501 38.31 26.7601 37.33 24.0801 36.05C24.0701 32.45 24.5501 21.97 30.4901 17.73L30.5001 17.72ZM5.06011 30.79C5.37011 29.3 6.58011 28.16 8.09011 27.95L11.8601 27.26C13.2801 27 14.5801 26.3 15.5601 25.24C17.0001 23.76 18.7101 21.17 21.1101 21.75C21.9501 21.88 22.7601 22.19 23.4701 22.65C22.0601 26.44 21.3101 30.45 21.2401 34.5C17.3401 32.38 12.9401 31.34 8.50011 31.49C7.35011 31.39 6.18011 31.45 5.05011 31.7C5.01011 31.4 5.01011 31.09 5.05011 30.79H5.06011ZM73.3701 61.6C73.3301 62.3 72.7901 62.87 72.1001 62.95H10.5201C9.90011 62.89 9.40011 62.42 9.29011 61.81L2.97011 37.84C2.71011 36.97 2.96011 36.03 3.61011 35.4C5.08011 34.45 6.85011 34.08 8.58011 34.35C12.5901 34.22 16.5601 35.17 20.0701 37.12C25.9601 40.33 32.1801 42.89 38.6201 44.76C39.0401 44.89 49.1001 47.83 58.4901 45.72C59.5901 45.82 65.3901 44.72 77.1301 37.5L73.3701 61.61V61.6Z" fill="black"/>
<path d="M40.01 48.65C31.83 48.84 31.83 58.77 40.01 58.96C48.19 58.77 48.19 48.84 40.01 48.65ZM40.01 56.11C35.6 55.99 35.61 51.63 40.01 51.51C44.42 51.63 44.42 55.99 40.01 56.11Z" fill="black"/>
<path d="M48.7899 28.82C49.9599 28.81 50.8999 27.85 50.8999 26.68C50.8999 25.51 49.9599 24.56 48.7899 24.54C47.6199 24.56 46.6799 25.51 46.6799 26.68C46.6799 27.85 47.6199 28.81 48.7899 28.82Z" fill="black"/>
<path d="M42.15 38.05C43.32 38.05 44.28 37.11 44.29 35.94C44.28 34.77 43.32 33.83 42.15 33.83C40.98 33.83 40.03 34.77 40.01 35.94C40.03 37.11 40.98 38.05 42.15 38.05Z" fill="black"/>
<path d="M32.34 25.12C33.51 25.1 34.45 24.15 34.45 22.98C34.45 21.81 33.51 20.85 32.34 20.83C31.17 20.85 30.23 21.8 30.23 22.98C30.23 24.16 31.17 25.1 32.34 25.12Z" fill="black"/>
<path d="M17.06 31.8C18.23 31.78 19.17 30.83 19.17 29.65C19.17 28.47 18.23 27.53 17.06 27.51C15.89 27.53 14.95 28.48 14.95 29.66C14.95 30.84 15.89 31.78 17.06 31.8Z" fill="black"/>
<path d="M28.86 30.73C27.69 30.75 26.75 31.7 26.75 32.87C26.75 34.04 27.69 34.99 28.86 35.01C30.03 34.99 30.97 34.04 30.97 32.87C30.97 31.7 30.03 30.75 28.86 30.73Z" fill="black"/>
<path d="M52.64 39.9C53.81 39.89 54.75 38.93 54.75 37.76C54.75 36.59 53.81 35.64 52.64 35.62C51.47 35.64 50.53 36.59 50.53 37.76C50.53 38.93 51.47 39.89 52.64 39.9Z" fill="black"/>
<path d="M67.7601 34.69C68.9201 34.55 69.7601 33.51 69.6401 32.34C69.5201 31.17 68.4901 30.32 67.3201 30.42C66.1601 30.56 65.3201 31.6 65.4401 32.77C65.5601 33.93 66.5901 34.79 67.7601 34.68V34.69Z" fill="black"/>
</g>
<defs>
<clipPath id="clip0_396_573">
<rect width="80" height="80" fill="white"/>
</clipPath>
</defs>
</svg>
