<svg width="80" height="80" viewBox="0 0 80 80" fill="none" xmlns="http://www.w3.org/2000/svg">
<g clip-path="url(#clip0_396_806)">
<path d="M78.2 48.84C78.49 47.98 78.6 47.04 78.5 45.98C78.45 45.5 78.4 45.09 78.34 44.72H78.65C79.39 44.72 80 44.12 80 43.37V33.75C79.99 33.61 79.95 33.47 79.89 33.31C79.87 33.24 79.84 33.19 79.82 33.16C79.78 33.07 79.72 32.98 79.64 32.88C79.59 32.83 79.54 32.79 79.5 32.75C79.48 32.72 79.45 32.69 79.4 32.66L45.77 9.62C42.2 7.17 37.78 7.17 34.21 9.62L0.58001 32.66C0.58001 32.66 0.51001 32.72 0.49001 32.75L0.47001 32.77C0.47001 32.77 0.43001 32.8 0.42001 32.82C0.40001 32.84 0.38001 32.86 0.35001 32.89C0.28001 32.98 0.22001 33.07 0.18001 33.14C0.16001 33.16 0.15001 33.19 0.14001 33.21C0.14001 33.23 0.12001 33.24 0.10001 33.28C0.0400098 33.43 0.0100098 33.59 0.0100098 33.77V43.37C0.0100098 44.11 0.61001 44.72 1.35001 44.72H1.95001C1.95001 44.72 1.95001 44.77 1.95001 44.8C2.07001 46.13 2.32001 47.24 2.70001 48.2C1.04001 49.15 0.0100098 50.91 0.0100098 52.82V54.41C0.0100098 56.09 0.78001 57.64 2.14001 58.67C2.07001 59.04 2.02001 59.45 1.98001 59.96H1.36001C0.62001 59.96 0.0200098 60.56 0.0200098 61.3V70.89C0.0200098 71.63 0.62001 72.23 1.36001 72.23H78.64C79.38 72.23 79.99 71.63 79.99 70.89V61.3C79.99 60.56 79.39 59.96 78.64 59.96H78.37C78.42 59.62 78.49 59.23 78.52 58.8C78.55 58.55 78.52 58.31 78.5 58.09C79.47 57.07 80 55.77 80 54.43V52.84C80 51.31 79.35 49.87 78.2 48.86V48.84ZM5.69001 32.43L35.74 11.83C38.36 10.02 41.62 10.03 44.25 11.83L74.3 32.43H5.69001ZM2.70001 42.03V35.12H77.29V42.03H2.70001ZM54.07 60.28C54.07 60.28 54.15 60.32 54.18 60.33C54.22 60.35 54.25 60.36 54.29 60.38C54.59 60.54 54.94 60.7 55.32 60.83C55.35 60.84 55.38 60.85 55.41 60.86C55.44 60.86 55.46 60.88 55.5 60.9C55.89 61.03 56.24 61.12 56.58 61.19L56.8 61.23C57.11 61.28 57.45 61.33 57.78 61.33H57.83C58.01 61.33 58.18 61.32 58.33 61.29C58.39 61.29 58.47 61.29 58.52 61.28C58.75 61.25 58.97 61.19 59.16 61.14C59.4 61.07 59.63 60.96 59.84 60.84C59.87 60.82 59.9 60.8 59.94 60.78C59.97 60.76 60 60.74 60.04 60.71C60.18 60.61 60.31 60.52 60.46 60.4C60.48 60.38 60.51 60.35 60.54 60.33C60.57 60.3 60.61 60.28 60.65 60.24C60.8 60.09 60.95 59.94 61.09 59.74C61.09 59.74 61.09 59.74 61.09 59.73H74.62C75.01 59.73 75.39 59.67 75.69 59.61C75.61 60.07 75.52 60.49 75.4 60.85C75.02 62.01 74 65.1 67.19 63.02C59.05 60.56 54.14 60.82 49.04 63.98C47.67 64.83 45.24 63.76 42.88 62.72L42.83 62.7C39.94 61.41 36.95 60.08 34.48 61.56C30.05 64.22 25.5 66.59 22.92 63.89C22.77 63.74 22.62 63.59 22.48 63.44C22.41 63.37 22.34 63.3 22.27 63.23C22.2 63.16 22.13 63.1 22.06 63.05C22 63 21.95 62.96 21.9 62.91C21.81 62.83 21.72 62.75 21.63 62.69C21.55 62.62 21.47 62.56 21.37 62.49C21.25 62.4 21.14 62.31 21.02 62.23C20.93 62.17 20.85 62.12 20.77 62.08C20.71 62.05 20.66 62.02 20.61 61.99C20.55 61.95 20.49 61.92 20.4 61.87C20.32 61.83 20.24 61.79 20.15 61.75C20.04 61.7 19.93 61.64 19.8 61.6C19.76 61.59 19.72 61.57 19.68 61.55C19.63 61.53 19.59 61.51 19.55 61.5C19.44 61.46 19.33 61.43 19.22 61.4C19.15 61.37 19.06 61.36 18.98 61.35H18.95C18.83 61.31 18.71 61.3 18.6 61.29C18.53 61.28 18.42 61.26 18.34 61.26C18.22 61.25 18.1 61.25 17.99 61.25C17.97 61.25 17.96 61.25 17.94 61.25C17.91 61.25 17.88 61.25 17.85 61.25H17.77C17.44 61.25 17.11 61.28 16.75 61.34C16.73 61.34 16.71 61.34 16.68 61.35C16.65 61.35 16.62 61.35 16.6 61.36C16.3 61.41 15.95 61.48 15.5 61.59L15.27 61.65C14.9 61.75 14.52 61.86 14.12 61.98C14.09 61.98 14.06 62 14.02 62.01C13.99 62.01 13.97 62.03 13.93 62.04C13.49 62.18 13.03 62.32 12.55 62.49C9.26001 63.58 6.69001 63.74 5.50001 62.94C5.18001 62.73 4.74001 62.32 4.65001 61.16C4.62001 60.88 4.62001 60.58 4.65001 60.22C4.66001 60.04 4.68001 59.88 4.70001 59.72C4.90001 59.75 5.12001 59.76 5.37001 59.76H53.02C53.31 59.92 53.69 60.13 54.05 60.3L54.07 60.28ZM75.41 48.48C74.52 49.72 71.72 49.72 67.92 48.48C65.29 47.61 63.19 47.58 61.69 48.39C60.66 48.95 59.93 49.89 59.58 51.11C59.36 51.91 59.3 52.85 59.41 53.92V54.06C59.45 54.29 59.47 54.5 59.48 54.72C59.57 56.46 59.34 57.38 59.13 57.85C58.89 58.36 58.62 58.51 58.39 58.58C57.51 58.85 55.93 58.37 54.06 57.25C52.35 56.23 50.44 54.73 48.81 53.15C48.05 52.42 47.41 51.71 47.01 51.17C46.77 50.84 46.5 50.6 46.27 50.4L46.2 50.33C45.92 50.12 45.64 49.96 45.35 49.84C45.34 49.84 45.32 49.83 45.31 49.82C45.28 49.81 45.26 49.79 45.24 49.79C44.97 49.68 44.69 49.59 44.28 49.5C44.24 49.49 44.2 49.48 44.16 49.48C43.78 49.42 43.46 49.38 43.15 49.37H43C42.95 49.37 42.9 49.37 42.85 49.37C42.64 49.36 42.39 49.37 42.17 49.39C42.02 49.39 41.87 49.4 41.72 49.42C41.45 49.43 41.17 49.46 40.93 49.5L40.52 49.54C40.21 49.58 39.89 49.64 39.57 49.69C39.47 49.7 39.37 49.72 39.28 49.74C39.08 49.77 38.87 49.81 38.67 49.85C38.46 49.89 38.25 49.92 38.05 49.96C35.5 50.43 32.87 50.92 31.47 50.04C29 48.51 26.65 47.71 24.04 47.5H23.9C22.92 47.41 21.89 47.41 20.85 47.5C18.71 47.67 16.31 48.17 13.3 49.09C9.48001 50.23 6.95001 49.96 5.79001 48.28C5.76001 48.24 5.74001 48.21 5.72001 48.18L5.70001 48.13C5.17001 47.34 4.83001 46.23 4.68001 44.72H75.62C75.71 45.16 75.78 45.66 75.83 46.22C75.92 47.22 75.79 47.98 75.43 48.48H75.41ZM76.21 56.56C75.75 56.9 75.21 57.08 74.64 57.08H62.09C62.09 57 62.11 56.93 62.11 56.85C62.11 56.81 62.12 56.77 62.13 56.73C62.13 56.7 62.13 56.66 62.14 56.62C62.18 56.24 62.19 55.83 62.18 55.39V55.14C62.16 54.62 62.13 54.15 62.08 53.68C62 52.95 62.03 52.32 62.16 51.85C62.3 51.33 62.55 50.99 62.94 50.78C63.75 50.35 65.21 50.45 67.06 51.05C67.59 51.21 68.13 51.37 68.82 51.55L69.4 51.68C69.75 51.76 70.1 51.84 70.44 51.89L71.01 51.97C71.32 52.01 71.64 52.05 71.93 52.06C72.11 52.07 72.29 52.09 72.46 52.09C72.76 52.1 73.04 52.09 73.32 52.08C73.39 52.08 73.47 52.08 73.55 52.07C73.62 52.07 73.7 52.07 73.77 52.06C74.05 52.03 74.33 51.99 74.65 51.91C74.72 51.89 74.79 51.88 74.86 51.87H74.93C75.33 51.75 75.66 51.62 75.96 51.46C75.99 51.44 76.03 51.41 76.07 51.4C76.28 51.28 76.45 51.18 76.62 51.06C77.06 51.55 77.3 52.18 77.3 52.85V54.44C77.3 55.29 76.89 56.09 76.21 56.58V56.56ZM4.11001 50.46C4.11001 50.46 4.14001 50.48 4.15001 50.49C4.21001 50.55 4.27001 50.6 4.33001 50.65C4.39001 50.7 4.44001 50.75 4.49001 50.8L4.52001 50.82C4.69001 50.96 4.86001 51.11 5.05001 51.24C5.14001 51.31 5.24001 51.36 5.33001 51.42C5.37001 51.45 5.42001 51.47 5.47001 51.5C5.66001 51.6 5.87001 51.72 6.10001 51.81C6.26001 51.88 6.42001 51.94 6.57001 51.99C6.81001 52.07 7.04001 52.14 7.29001 52.2C7.45001 52.24 7.61001 52.27 7.77001 52.29H7.81001C8.07001 52.34 8.34001 52.36 8.62001 52.38C9.07001 52.41 9.59001 52.41 10.1 52.37C10.16 52.37 10.22 52.37 10.28 52.36C10.41 52.36 10.53 52.35 10.66 52.33C11.02 52.29 11.4 52.22 11.78 52.15C11.96 52.12 12.13 52.1 12.29 52.05C12.85 51.93 13.44 51.77 14.05 51.6C16.89 50.74 19.1 50.27 21 50.13H23.77C25.96 50.31 27.94 50.99 30.02 52.28C32.27 53.67 35.38 53.11 38.39 52.57L38.5 52.55C41.17 52.05 43.94 51.54 44.83 52.76C45.32 53.42 46.06 54.24 46.92 55.07C47.3 55.44 47.73 55.84 48.24 56.28L48.39 56.41C48.5 56.5 48.61 56.59 48.71 56.67C48.85 56.8 49 56.93 49.15 57.05H5.36001C4.99001 57.05 4.59001 56.96 4.23001 56.8C3.29001 56.35 2.70001 55.42 2.70001 54.39V52.8C2.70001 51.83 3.25001 50.92 4.10001 50.44L4.11001 50.46ZM2.70001 63.8C2.70001 63.8 2.75001 63.88 2.78001 63.92C2.80001 63.96 2.83001 64 2.85001 64.03C2.85001 64.04 2.87001 64.05 2.89001 64.08C2.97001 64.19 3.05001 64.3 3.14001 64.4C3.16001 64.42 3.18001 64.44 3.19001 64.46C3.21001 64.49 3.23001 64.51 3.25001 64.53C3.31001 64.6 3.37001 64.66 3.44001 64.72L3.54001 64.81C3.54001 64.81 3.56001 64.83 3.58001 64.84C3.60001 64.86 3.62001 64.88 3.65001 64.9L3.76001 64.98C3.85001 65.05 3.93001 65.11 4.01001 65.17C6.44001 66.8 10.46 66 13.41 65.03C17.96 63.54 18.65 63.32 20.98 65.76C21.18 65.97 21.42 66.18 21.73 66.43L21.9 66.56C22.15 66.75 22.41 66.92 22.68 67.05C22.7 67.07 22.72 67.07 22.74 67.08C23.02 67.23 23.29 67.33 23.52 67.41C23.56 67.42 23.59 67.44 23.62 67.45C23.65 67.45 23.68 67.47 23.72 67.49C23.99 67.57 24.27 67.65 24.57 67.7H24.62C24.62 67.7 24.66 67.72 24.68 67.71C24.94 67.75 25.21 67.78 25.47 67.79C25.5 67.79 25.53 67.79 25.56 67.79C25.6 67.79 25.63 67.79 25.67 67.79H25.82C25.82 67.79 25.89 67.79 25.93 67.79C25.97 67.79 26.01 67.79 26.07 67.79C26.37 67.78 26.67 67.76 26.97 67.72C27.1 67.71 27.21 67.69 27.33 67.66C27.67 67.61 28.04 67.53 28.42 67.42C28.44 67.42 28.45 67.42 28.47 67.42C28.49 67.42 28.52 67.42 28.55 67.41C28.93 67.31 29.34 67.17 29.77 67.01L30.1 66.89C30.24 66.83 30.39 66.78 30.53 66.72C30.69 66.66 30.85 66.59 31.02 66.52C31.07 66.49 31.12 66.47 31.18 66.45C31.24 66.42 31.3 66.4 31.36 66.37C31.71 66.21 32.07 66.04 32.41 65.87C32.43 65.86 32.46 65.85 32.51 65.83C32.87 65.64 33.24 65.45 33.59 65.25C33.66 65.21 33.73 65.18 33.79 65.14C33.85 65.1 33.91 65.07 33.99 65.03L34.78 64.58C34.89 64.52 35 64.45 35.11 64.39C35.14 64.37 35.17 64.35 35.21 64.33C35.24 64.31 35.27 64.29 35.3 64.27L35.5 64.15C35.64 64.07 35.79 63.98 35.92 63.9C36.01 63.84 36.14 63.8 36.27 63.76C37.58 63.34 39.71 64.28 41.79 65.19C44.8 66.53 47.92 67.92 50.52 66.31C54.95 63.58 59.12 63.41 66.49 65.65C67.02 65.81 67.43 65.92 67.79 66C67.86 66.02 67.93 66.04 68 66.05C68.07 66.06 68.14 66.08 68.22 66.1C68.48 66.15 68.72 66.2 68.97 66.25H69.01C69.09 66.27 69.16 66.28 69.24 66.29C69.31 66.29 69.39 66.31 69.47 66.32C69.7 66.35 69.92 66.37 70.14 66.4C70.29 66.41 70.44 66.43 70.57 66.43C70.67 66.43 70.77 66.43 70.87 66.44C70.97 66.44 71.06 66.44 71.17 66.45H71.58C71.77 66.45 71.96 66.44 72.14 66.42C72.18 66.42 72.22 66.42 72.26 66.42C72.35 66.42 72.43 66.41 72.51 66.39C72.69 66.36 72.86 66.34 73.02 66.31C73.07 66.31 73.12 66.29 73.18 66.28C73.23 66.28 73.28 66.26 73.33 66.25C73.53 66.21 73.73 66.15 73.89 66.09C73.91 66.09 73.94 66.08 73.97 66.07C74 66.06 74.04 66.05 74.09 66.04C74.32 65.96 74.56 65.86 74.78 65.75C74.81 65.73 74.85 65.71 74.89 65.69C75.05 65.61 75.21 65.52 75.37 65.41C75.44 65.37 75.5 65.32 75.58 65.26C75.7 65.18 75.82 65.1 75.93 65.01C75.96 64.98 75.99 64.96 76.02 64.93C76.05 64.91 76.07 64.88 76.11 64.85C76.15 64.81 76.2 64.76 76.25 64.72C76.3 64.67 76.36 64.63 76.41 64.58C76.47 64.52 76.52 64.47 76.57 64.4C76.64 64.33 76.7 64.26 76.76 64.18L76.97 63.91C77.06 63.8 77.14 63.68 77.2 63.57C77.22 63.54 77.24 63.51 77.26 63.48C77.28 63.46 77.29 63.43 77.32 63.4C77.35 63.35 77.38 63.31 77.4 63.26V69.53H2.70001V63.79V63.8Z" fill="#283034"/>
</g>
<defs>
<clipPath id="clip0_396_806">
<rect width="80" height="80" fill="white"/>
</clipPath>
</defs>
</svg>
